<svg width="80" height="52" viewBox="0 0 80 52" fill="none" xmlns="http://www.w3.org/2000/svg">
<rect width="80" height="52" fill="white" fill-opacity="0.01"/>
<circle opacity="0.12" cx="40" cy="27" r="24" fill="white"/>
<path d="M30.7187 17.7188C29.4998 18.9376 28.5329 20.3846 27.8733 21.9771C27.2136 23.5695 26.8741 25.2764 26.8741 27.0001C26.8741 28.7238 27.2136 30.4306 27.8733 32.0231C28.5329 33.6156 29.4998 35.0626 30.7187 36.2813C30.8895 36.4582 30.984 36.695 30.9819 36.9408C30.9797 37.1866 30.8811 37.4217 30.7073 37.5955C30.5335 37.7694 30.2984 37.868 30.0526 37.8701C29.8068 37.8722 29.5699 37.7777 29.3931 37.607C28.0002 36.2141 26.8952 34.5605 26.1413 32.7405C25.3875 30.9206 24.9995 28.97 24.9995 27.0001C24.9995 25.0302 25.3875 23.0796 26.1413 21.2597C26.8952 19.4397 28.0002 17.7861 29.3931 16.3932C29.5699 16.2224 29.8068 16.1279 30.0526 16.1301C30.2984 16.1322 30.5335 16.2308 30.7073 16.4046C30.8811 16.5785 30.9797 16.8136 30.9819 17.0594C30.984 17.3052 30.8895 17.542 30.7187 17.7188ZM34.6975 21.6976C33.2915 23.104 32.5016 25.0114 32.5016 27.0001C32.5016 28.9888 33.2915 30.8961 34.6975 32.3026C34.7847 32.3898 34.8538 32.4932 34.901 32.6071C34.9482 32.721 34.9724 32.8431 34.9724 32.9663C34.9724 33.0896 34.9482 33.2117 34.901 33.3256C34.8538 33.4394 34.7847 33.5429 34.6975 33.6301C34.6103 33.7173 34.5069 33.7864 34.393 33.8336C34.2791 33.8807 34.157 33.905 34.0337 33.905C33.9105 33.905 33.7884 33.8807 33.6745 33.8336C33.5606 33.7864 33.4572 33.7173 33.37 33.6301C32.4992 32.7595 31.8084 31.7259 31.3371 30.5883C30.8658 29.4507 30.6232 28.2314 30.6232 27.0001C30.6232 25.7687 30.8658 24.5495 31.3371 23.4119C31.8084 22.2743 32.4992 21.2407 33.37 20.3701C33.546 20.1941 33.7848 20.0952 34.0337 20.0952C34.2827 20.0952 34.5215 20.1941 34.6975 20.3701C34.8735 20.5461 34.9724 20.7849 34.9724 21.0338C34.9724 21.2828 34.8735 21.5216 34.6975 21.6976ZM45.3025 20.3701C45.3896 20.2828 45.493 20.2135 45.6069 20.1663C45.7208 20.119 45.8429 20.0947 45.9662 20.0947C46.0896 20.0947 46.2117 20.119 46.3256 20.1663C46.4395 20.2135 46.5429 20.2828 46.63 20.3701C47.5008 21.2407 48.1916 22.2743 48.6629 23.4119C49.1342 24.5495 49.3767 25.7687 49.3767 27.0001C49.3767 28.2314 49.1342 29.4507 48.6629 30.5883C48.1916 31.7259 47.5008 32.7595 46.63 33.6301C46.5428 33.7173 46.4394 33.7864 46.3255 33.8336C46.2116 33.8807 46.0895 33.905 45.9662 33.905C45.843 33.905 45.7209 33.8807 45.607 33.8336C45.4931 33.7864 45.3897 33.7173 45.3025 33.6301C45.2153 33.5429 45.1462 33.4394 45.099 33.3256C45.0518 33.2117 45.0276 33.0896 45.0276 32.9663C45.0276 32.8431 45.0518 32.721 45.099 32.6071C45.1462 32.4932 45.2153 32.3898 45.3025 32.3026C46.7085 30.8961 47.4984 28.9888 47.4984 27.0001C47.4984 25.0114 46.7085 23.104 45.3025 21.6976C45.2152 21.6105 45.1459 21.5071 45.0987 21.3932C45.0514 21.2793 45.0271 21.1572 45.0271 21.0338C45.0271 20.9105 45.0514 20.7884 45.0987 20.6745C45.1459 20.5606 45.2152 20.4572 45.3025 20.3701ZM49.2812 16.3951C49.4571 16.2193 49.6955 16.1206 49.9441 16.1206C50.1926 16.1206 50.4311 16.2193 50.6069 16.3951C53.4195 19.2081 54.9996 23.0231 54.9996 27.001C54.9996 30.979 53.4195 34.794 50.6069 37.607C50.4301 37.7777 50.1932 37.8722 49.9474 37.8701C49.7016 37.868 49.4665 37.7694 49.2927 37.5955C49.1188 37.4217 49.0202 37.1866 49.0181 36.9408C49.016 36.695 49.1105 36.4582 49.2812 36.2813C50.5002 35.0626 51.4671 33.6156 52.1267 32.0231C52.7864 30.4306 53.1259 28.7238 53.1259 27.0001C53.1259 25.2764 52.7864 23.5695 52.1267 21.9771C51.4671 20.3846 50.5002 18.9376 49.2812 17.7188C49.1055 17.543 49.0068 17.3046 49.0068 17.056C49.0068 16.8074 49.1055 16.569 49.2812 16.3932V16.3951ZM43.75 27.0001C43.75 27.9947 43.3549 28.9485 42.6516 29.6517C41.9484 30.355 40.9946 30.7501 40 30.7501C39.0054 30.7501 38.0516 30.355 37.3483 29.6517C36.6451 28.9485 36.25 27.9947 36.25 27.0001C36.25 26.0055 36.6451 25.0517 37.3483 24.3484C38.0516 23.6452 39.0054 23.2501 40 23.2501C40.9946 23.2501 41.9484 23.6452 42.6516 24.3484C43.3549 25.0517 43.75 26.0055 43.75 27.0001Z" fill="white"/>
</svg>
