<svg width="24" height="24" viewBox="0 0 24 24" fill="none" xmlns="http://www.w3.org/2000/svg">
<path fill-rule="evenodd" clip-rule="evenodd" d="M10.9231 10.9231V6.07692C10.9231 5.48215 11.4052 5 12 5C12.5948 5 13.0769 5.48215 13.0769 6.07692V10.9231H17.9231C18.5178 10.9231 19 11.4052 19 12C19 12.5948 18.5178 13.0769 17.9231 13.0769H13.0769V17.9231C13.0769 18.5178 12.5948 19 12 19C11.4052 19 10.9231 18.5178 10.9231 17.9231V13.0769H6.07692C5.48215 13.0769 5 12.5948 5 12C5 11.4052 5.48215 10.9231 6.07692 10.9231H10.9231Z" fill="#3525E6"/>
<mask id="mask0_2957_1288" style="mask-type:alpha" maskUnits="userSpaceOnUse" x="5" y="5" width="14" height="14">
<path fill-rule="evenodd" clip-rule="evenodd" d="M10.9231 10.9231V6.07692C10.9231 5.48215 11.4052 5 12 5C12.5948 5 13.0769 5.48215 13.0769 6.07692V10.9231H17.9231C18.5178 10.9231 19 11.4052 19 12C19 12.5948 18.5178 13.0769 17.9231 13.0769H13.0769V17.9231C13.0769 18.5178 12.5948 19 12 19C11.4052 19 10.9231 18.5178 10.9231 17.9231V13.0769H6.07692C5.48215 13.0769 5 12.5948 5 12C5 11.4052 5.48215 10.9231 6.07692 10.9231H10.9231Z" fill="white"/>
</mask>
<g mask="url(#mask0_2957_1288)">
</g>
</svg>
