<svg width="24" height="25" viewBox="0 0 24 25" fill="none" xmlns="http://www.w3.org/2000/svg">
<path d="M9 20.5C9 22.157 10.343 23.5 12 23.5C13.657 23.5 15 22.157 15 20.5H9Z" fill="#7785FF"/>
<path opacity="0.35" d="M19 11.1668V9.79378C19 5.96078 16.047 2.61878 12.215 2.50378C8.251 2.38378 5 5.56178 5 9.49978V11.1668C5 12.6818 4.509 14.1548 3.6 15.3668L2.45 16.8998C2.158 17.2888 2 17.7628 2 18.2498C2 19.4928 3.007 20.4998 4.25 20.4998H19.75C20.993 20.4998 22 19.4928 22 18.2498C22 17.7628 21.842 17.2888 21.55 16.8998L20.4 15.3668C19.491 14.1548 19 12.6808 19 11.1668Z" fill="#7785FF"/>
<path d="M22 10.4999C21.448 10.4999 21 10.0529 21 9.49986C21 8.25586 20.746 7.04486 20.246 5.89986C20.024 5.39386 20.255 4.80386 20.761 4.58386C21.267 4.36086 21.857 4.59286 22.078 5.09986C22.69 6.49686 23 7.97786 23 9.49986C23 10.0529 22.552 10.4999 22 10.4999Z" fill="#7785FF"/>
<path d="M2 10.4999C1.448 10.4999 1 10.0529 1 9.49992C1 7.97792 1.31 6.49692 1.922 5.09992C2.143 4.59292 2.733 4.36192 3.239 4.58392C3.745 4.80492 3.976 5.39492 3.754 5.89992C3.254 7.04492 3 8.25592 3 9.49992C3 10.0529 2.552 10.4999 2 10.4999Z" fill="#7785FF"/>
</svg>
