<svg width="20" height="19" viewBox="0 0 20 19" fill="none" xmlns="http://www.w3.org/2000/svg">
<path d="M8.7274 1.01634L8.7273 1.01634C8.46022 1.02492 8.2122 1.14746 8.03351 1.3491L1.03455 9.06327L1.03452 9.06331C0.850091 9.26667 0.750122 9.53765 0.750122 9.81572C0.750122 10.0938 0.850091 10.3648 1.03452 10.5681L1.03455 10.5682L8.03299 18.2818C8.12341 18.385 8.23282 18.469 8.35567 18.5275C8.47943 18.5865 8.61368 18.6181 8.75034 18.6196C8.88699 18.6211 9.02189 18.5925 9.14686 18.5363C9.27175 18.4801 9.3835 18.3978 9.4763 18.2955C9.56905 18.1933 9.6412 18.073 9.68962 17.9423C9.73804 17.8115 9.76208 17.6722 9.76079 17.5322C9.75949 17.3922 9.73289 17.2534 9.68203 17.1237C9.63149 16.9948 9.55769 16.8767 9.46381 16.7768L4.12491 10.8924H18.2482C18.3836 10.8942 18.5173 10.8664 18.6415 10.8114C18.7662 10.7562 18.878 10.6749 18.9712 10.5737C19.0643 10.4725 19.137 10.3533 19.1863 10.2235C19.2355 10.0937 19.2607 9.95517 19.2607 9.81572C19.2607 9.67627 19.2355 9.53772 19.1863 9.40793C19.137 9.27812 19.0643 9.15889 18.9712 9.05773C18.878 8.95652 18.7662 8.87527 18.6415 8.82003C18.5173 8.76504 18.3836 8.73727 18.2482 8.73907H4.12491L9.46435 2.85399C9.60595 2.70149 9.70015 2.50843 9.7381 2.30109C9.77615 2.09321 9.75655 1.87727 9.68102 1.68064C9.60545 1.48391 9.47624 1.3129 9.30658 1.19284C9.13651 1.0725 8.93456 1.00976 8.7274 1.01634Z" fill="#026AE8" stroke="#026AE8" stroke-width="0.5"/>
</svg>
