<svg width="48" height="48" viewBox="0 0 48 48" fill="none" xmlns="http://www.w3.org/2000/svg">
<circle opacity="0.12" cx="24" cy="24" r="24" fill="white"/>
<path d="M14.7187 14.7188C13.4998 15.9376 12.5329 17.3846 11.8733 18.9771C11.2136 20.5695 10.8741 22.2764 10.8741 24.0001C10.8741 25.7238 11.2136 27.4306 11.8733 29.0231C12.5329 30.6156 13.4998 32.0626 14.7187 33.2813C14.8895 33.4582 14.984 33.695 14.9819 33.9408C14.9797 34.1866 14.8811 34.4217 14.7073 34.5955C14.5335 34.7694 14.2984 34.868 14.0526 34.8701C13.8068 34.8722 13.5699 34.7777 13.3931 34.607C12.0002 33.2141 10.8952 31.5605 10.1413 29.7405C9.38746 27.9206 8.99945 25.97 8.99945 24.0001C8.99945 22.0302 9.38746 20.0796 10.1413 18.2597C10.8952 16.4397 12.0002 14.7861 13.3931 13.3932C13.5699 13.2224 13.8068 13.1279 14.0526 13.1301C14.2984 13.1322 14.5335 13.2308 14.7073 13.4046C14.8811 13.5785 14.9797 13.8136 14.9819 14.0594C14.984 14.3052 14.8895 14.542 14.7187 14.7188ZM18.6975 18.6976C17.2915 20.104 16.5016 22.0114 16.5016 24.0001C16.5016 25.9888 17.2915 27.8961 18.6975 29.3026C18.7847 29.3898 18.8538 29.4932 18.901 29.6071C18.9482 29.721 18.9724 29.8431 18.9724 29.9663C18.9724 30.0896 18.9482 30.2117 18.901 30.3256C18.8538 30.4394 18.7847 30.5429 18.6975 30.6301C18.6103 30.7173 18.5069 30.7864 18.393 30.8336C18.2791 30.8807 18.157 30.905 18.0337 30.905C17.9105 30.905 17.7884 30.8807 17.6745 30.8336C17.5606 30.7864 17.4572 30.7173 17.37 30.6301C16.4992 29.7595 15.8084 28.7259 15.3371 27.5883C14.8658 26.4507 14.6232 25.2314 14.6232 24.0001C14.6232 22.7687 14.8658 21.5495 15.3371 20.4119C15.8084 19.2743 16.4992 18.2407 17.37 17.3701C17.546 17.1941 17.7848 17.0952 18.0337 17.0952C18.2827 17.0952 18.5215 17.1941 18.6975 17.3701C18.8735 17.5461 18.9724 17.7849 18.9724 18.0338C18.9724 18.2828 18.8735 18.5216 18.6975 18.6976ZM29.3025 17.3701C29.3896 17.2828 29.493 17.2135 29.6069 17.1663C29.7208 17.119 29.8429 17.0947 29.9662 17.0947C30.0896 17.0947 30.2117 17.119 30.3256 17.1663C30.4395 17.2135 30.5429 17.2828 30.63 17.3701C31.5008 18.2407 32.1916 19.2743 32.6629 20.4119C33.1342 21.5495 33.3767 22.7687 33.3767 24.0001C33.3767 25.2314 33.1342 26.4507 32.6629 27.5883C32.1916 28.7259 31.5008 29.7595 30.63 30.6301C30.5428 30.7173 30.4394 30.7864 30.3255 30.8336C30.2116 30.8807 30.0895 30.905 29.9662 30.905C29.843 30.905 29.7209 30.8807 29.607 30.8336C29.4931 30.7864 29.3897 30.7173 29.3025 30.6301C29.2153 30.5429 29.1462 30.4394 29.099 30.3256C29.0518 30.2117 29.0276 30.0896 29.0276 29.9663C29.0276 29.8431 29.0518 29.721 29.099 29.6071C29.1462 29.4932 29.2153 29.3898 29.3025 29.3026C30.7085 27.8961 31.4984 25.9888 31.4984 24.0001C31.4984 22.0114 30.7085 20.104 29.3025 18.6976C29.2152 18.6105 29.1459 18.5071 29.0987 18.3932C29.0514 18.2793 29.0271 18.1572 29.0271 18.0338C29.0271 17.9105 29.0514 17.7884 29.0987 17.6745C29.1459 17.5606 29.2152 17.4572 29.3025 17.3701ZM33.2812 13.3951C33.4571 13.2193 33.6955 13.1206 33.9441 13.1206C34.1926 13.1206 34.4311 13.2193 34.6069 13.3951C37.4195 16.2081 38.9996 20.0231 38.9996 24.001C38.9996 27.979 37.4195 31.794 34.6069 34.607C34.4301 34.7777 34.1932 34.8722 33.9474 34.8701C33.7016 34.868 33.4665 34.7694 33.2927 34.5955C33.1188 34.4217 33.0202 34.1866 33.0181 33.9408C33.016 33.695 33.1105 33.4582 33.2812 33.2813C34.5002 32.0626 35.4671 30.6156 36.1267 29.0231C36.7864 27.4306 37.1259 25.7238 37.1259 24.0001C37.1259 22.2764 36.7864 20.5695 36.1267 18.9771C35.4671 17.3846 34.5002 15.9376 33.2812 14.7188C33.1055 14.543 33.0068 14.3046 33.0068 14.056C33.0068 13.8074 33.1055 13.569 33.2812 13.3932V13.3951ZM27.75 24.0001C27.75 24.9947 27.3549 25.9485 26.6516 26.6517C25.9484 27.355 24.9946 27.7501 24 27.7501C23.0054 27.7501 22.0516 27.355 21.3483 26.6517C20.6451 25.9485 20.25 24.9947 20.25 24.0001C20.25 23.0055 20.6451 22.0517 21.3483 21.3484C22.0516 20.6452 23.0054 20.2501 24 20.2501C24.9946 20.2501 25.9484 20.6452 26.6516 21.3484C27.3549 22.0517 27.75 23.0055 27.75 24.0001Z" fill="white"/>
</svg>
