<svg width="25" height="19" viewBox="0 0 25 19" fill="none" xmlns="http://www.w3.org/2000/svg">
<path fill-rule="evenodd" clip-rule="evenodd" d="M15.5194 0C15.8232 0 16.1105 0.13809 16.3002 0.375305L18.4 3H22C23.6569 3 25 4.34315 25 6V16C25 17.6569 23.6569 19 22 19H3C1.34315 19 0 17.6569 0 16V6C0 4.34315 1.34315 3 3 3H6.599L8.69976 0.375305C8.88953 0.13809 9.17684 0 9.48063 0H15.5194ZM12.5 5C9.32436 5 6.75 7.57436 6.75 10.75C6.75 13.9256 9.32436 16.5 12.5 16.5C15.6756 16.5 18.25 13.9256 18.25 10.75C18.25 7.57436 15.6756 5 12.5 5ZM12.5 6.5C14.8472 6.5 16.75 8.40279 16.75 10.75C16.75 13.0972 14.8472 15 12.5 15C10.1528 15 8.25 13.0972 8.25 10.75C8.25 8.40279 10.1528 6.5 12.5 6.5ZM19.5 4.75C19.0858 4.75 18.75 5.08579 18.75 5.5C18.75 5.91421 19.0858 6.25 19.5 6.25C19.9142 6.25 20.25 5.91421 20.25 5.5C20.25 5.08579 19.9142 4.75 19.5 4.75ZM4.5 1C4.77614 1 5 1.22386 5 1.5V2H3V1.5C3 1.22386 3.22386 1 3.5 1H4.5Z" fill="white"/>
</svg>
