<svg width="24" height="25" viewBox="0 0 24 25" fill="none" xmlns="http://www.w3.org/2000/svg">
<g clip-path="url(#clip0_1806_2558)">
<path opacity="0.35" d="M19 20.5H5C3.343 20.5 2 19.157 2 17.5V7.5C2 5.843 3.343 4.5 5 4.5H19C20.657 4.5 22 5.843 22 7.5V17.5C22 19.157 20.657 20.5 19 20.5Z" fill="#5FC8FF"/>
<path d="M22 8.5H2V11.5H22V8.5Z" fill="#5FC8FF"/>
<path d="M23.998 17.487C24.029 16.982 23.639 16.519 23.09 16.436C20.807 16.095 20.5 14.5 19 14.5C17.5 14.5 17.247 16.095 14.964 16.436C14.415 16.518 14.025 16.981 14.056 17.487C14.291 21.303 15.444 23.115 19 24.5C22.557 23.115 23.763 21.302 23.998 17.487Z" fill="#5FC8FF"/>
</g>
<defs>
<clipPath id="clip0_1806_2558">
<rect width="24" height="24" fill="white" transform="translate(0 0.5)"/>
</clipPath>
</defs>
</svg>
