<svg width="30" height="30" viewBox="0 0 30 30" fill="none" xmlns="http://www.w3.org/2000/svg">
<g clip-path="url(#clip0_1806_5919)">
<circle cx="15" cy="15" r="15" fill="#787880" fill-opacity="0.16"/>
<path d="M9.90625 19C9.52344 19.375 9.51562 20.0625 9.91406 20.4609C10.3125 20.8594 11 20.8438 11.375 20.4688L15 16.8438L18.625 20.4609C19.0156 20.8516 19.6875 20.8594 20.0859 20.4531C20.4844 20.0547 20.4844 19.3828 20.0938 18.9922L16.4766 15.375L20.0938 11.75C20.4844 11.3594 20.4844 10.6875 20.0859 10.2891C19.6875 9.88281 19.0156 9.89062 18.625 10.2812L15 13.8984L11.375 10.2734C11 9.89844 10.3125 9.88281 9.91406 10.2812C9.51562 10.6797 9.52344 11.3672 9.90625 11.75L13.5312 15.375L9.90625 19Z" fill="#3C3C43" fill-opacity="0.6"/>
</g>
<defs>
<clipPath id="clip0_1806_5919">
<rect width="30" height="30" fill="white"/>
</clipPath>
</defs>
</svg>
