<svg width="20" height="20" viewBox="0 0 20 20" fill="none" xmlns="http://www.w3.org/2000/svg">
<path d="M15.1822 4.57774C15.0199 4.58609 14.8673 4.65731 14.7566 4.77631L7.66107 12.1941L5.2335 9.76654C5.1759 9.70656 5.10692 9.65867 5.03059 9.62568C4.95426 9.5927 4.87212 9.57527 4.78897 9.57442C4.70582 9.57358 4.62334 9.58933 4.54635 9.62076C4.46937 9.65219 4.39943 9.69867 4.34063 9.75747C4.28183 9.81627 4.23536 9.88621 4.20392 9.96319C4.17249 10.0402 4.15674 10.1227 4.15759 10.2058C4.15843 10.289 4.17586 10.3711 4.20885 10.4474C4.24184 10.5238 4.28972 10.5927 4.34971 10.6503L6.79762 13.0982L6.03184 13.8982L1.90016 9.76654C1.84257 9.70656 1.77359 9.65867 1.69726 9.62568C1.62093 9.5927 1.53879 9.57527 1.45564 9.57442C1.37249 9.57358 1.29 9.58933 1.21302 9.62076C1.13603 9.65219 1.06609 9.69867 1.0073 9.75747C0.948497 9.81626 0.902021 9.8862 0.87059 9.96319C0.83916 10.0402 0.823406 10.1227 0.824251 10.2058C0.825096 10.289 0.842524 10.3711 0.875514 10.4474C0.908503 10.5238 0.956391 10.5927 1.01637 10.6503L5.59971 15.2337C5.65856 15.2925 5.72858 15.339 5.80566 15.3705C5.88273 15.4019 5.96531 15.4176 6.04854 15.4167C6.13177 15.4158 6.21398 15.3983 6.29035 15.3652C6.36672 15.3321 6.43571 15.284 6.49326 15.2239L7.68141 13.982L8.93304 15.2337C8.9919 15.2925 9.06191 15.339 9.13899 15.3705C9.21606 15.4019 9.29864 15.4176 9.38187 15.4167C9.4651 15.4158 9.54732 15.3983 9.62368 15.3652C9.70005 15.3321 9.76904 15.284 9.82659 15.2239L18.9933 5.64057C19.0817 5.55081 19.1409 5.43644 19.1631 5.31244C19.1854 5.18845 19.1697 5.06062 19.118 4.94572C19.0664 4.83081 18.9812 4.7342 18.8737 4.66853C18.7662 4.60287 18.6414 4.57122 18.5156 4.57774C18.3533 4.58609 18.2006 4.65731 18.0899 4.77631L9.36517 13.8982L8.54567 13.0787L15.6599 5.64057C15.7483 5.55081 15.8075 5.43644 15.8298 5.31244C15.8521 5.18845 15.8363 5.06062 15.7847 4.94572C15.7331 4.83081 15.6479 4.7342 15.5404 4.66853C15.4329 4.60287 15.308 4.57122 15.1822 4.57774Z" fill="currentColor"/>
</svg>
