<svg width="24" height="24" viewBox="0 0 24 24" fill="none" xmlns="http://www.w3.org/2000/svg">
<path d="M20.25 3C20.0581 3 19.8662 3.07323 19.7197 3.21973L10.7314 12.209L10 14L11.791 13.2686L20.7803 4.28027C21.0728 3.98727 21.0728 3.51273 20.7803 3.21973C20.6338 3.07323 20.4419 3 20.25 3ZM6.25 3.5C4.74011 3.5 3.5 4.74011 3.5 6.25V17.75C3.5 19.2599 4.74011 20.5 6.25 20.5H17.75C19.2599 20.5 20.5 19.2599 20.5 17.75V9.25C20.5014 9.15062 20.483 9.05194 20.446 8.95972C20.4089 8.86749 20.3539 8.78355 20.2841 8.71277C20.2143 8.642 20.1312 8.58579 20.0395 8.54743C19.9478 8.50907 19.8494 8.48932 19.75 8.48932C19.6506 8.48932 19.5522 8.50907 19.4605 8.54743C19.3688 8.58579 19.2857 8.642 19.2159 8.71277C19.1461 8.78355 19.0911 8.86749 19.054 8.95972C19.017 9.05194 18.9986 9.15062 19 9.25V17.75C19 18.4491 18.4491 19 17.75 19H6.25C5.55089 19 5 18.4491 5 17.75V6.25C5 5.55089 5.55089 5 6.25 5H14.75C14.8494 5.00141 14.9481 4.98304 15.0403 4.94598C15.1325 4.90892 15.2164 4.8539 15.2872 4.78412C15.358 4.71434 15.4142 4.63118 15.4526 4.53949C15.4909 4.4478 15.5107 4.34939 15.5107 4.25C15.5107 4.15061 15.4909 4.0522 15.4526 3.96051C15.4142 3.86882 15.358 3.78566 15.2872 3.71588C15.2164 3.6461 15.1325 3.59108 15.0403 3.55402C14.9481 3.51696 14.8494 3.49859 14.75 3.5H6.25Z" fill="white"/>
</svg>
