<svg width="16" height="16" viewBox="0 0 16 16" fill="none" xmlns="http://www.w3.org/2000/svg">
<path d="M13.0001 0.0874023C12.2523 0.0874023 11.5046 0.370891 10.9379 0.937826L1.71512 10.1598C1.54013 10.3348 1.41197 10.5524 1.34403 10.7913L0.107862 15.12C0.0773756 15.2271 0.0760588 15.3404 0.104048 15.4482C0.132037 15.556 0.188315 15.6543 0.267061 15.7331C0.345807 15.8118 0.444162 15.8681 0.551951 15.8961C0.65974 15.9241 0.77305 15.9227 0.88016 15.8923L5.20959 14.6561C5.20986 14.6558 5.21013 14.6555 5.2104 14.6553C5.4477 14.5871 5.66478 14.4605 5.84028 14.285L15.0623 5.06217C16.1961 3.92837 16.1961 2.07163 15.0623 0.937826C14.4956 0.370891 13.7479 0.0874023 13.0001 0.0874023ZM13.0001 1.33008C13.4254 1.33008 13.8502 1.49397 14.1777 1.82161C14.178 1.82161 14.1782 1.82161 14.1785 1.82161C14.8347 2.47781 14.8347 3.52219 14.1785 4.17839L13.3704 4.98649L11.0136 2.62972L11.8217 1.82161C12.1492 1.49397 12.5748 1.33008 13.0001 1.33008ZM10.1298 3.51351L12.4866 5.87028L4.95568 13.4012C4.93125 13.4255 4.90031 13.4441 4.86535 13.4541L1.61828 14.3818L2.54601 11.134C2.54601 11.1337 2.54601 11.1334 2.54601 11.1331C2.55557 11.0995 2.57307 11.0695 2.59891 11.0436L10.1298 3.51351Z" fill="currentColor"/>
</svg>
