<svg width="139" height="134" viewBox="0 0 139 134" fill="none" xmlns="http://www.w3.org/2000/svg">
<path d="M71.1178 118C103.918 118 130.518 91.6 130.518 59C130.518 26.4 103.918 0 71.1178 0C38.3178 0 11.7178 26.4 11.7178 59C11.7178 91.6 38.3178 118 71.1178 118Z" fill="#EAEEF9"/>
<path d="M116.618 51.2999V87.4C116.618 94.9 110.518 101 102.918 101H39.5179C32.0179 101 25.9179 95 25.8179 87.5C25.8179 87.4 25.8179 87.4 25.8179 87.3V51.2999C25.8179 51.2 25.8179 51.1999 25.8179 51.0999C25.8179 50.8999 25.8179 50.7 25.9179 50.5C26.0179 50.2 26.1179 50 26.2179 49.7L43.2179 17.2C43.8179 15.9 45.1179 15.2 46.5179 15.2H95.8179C97.2179 15.2 98.4179 15.9 99.1179 17.2L116.118 49.7C116.218 49.9 116.318 50.2 116.418 50.5C116.618 50.7 116.618 51 116.618 51.2999Z" fill="url(#paint0_linear_16703_52142)"/>
<g filter="url(#filter0_d_16703_52142)">
<path d="M111.4 53.1099V87.3359C111.4 92.2038 107.506 96.0981 102.55 96.0981H39.8864C35.0185 96.0981 31.0356 92.2038 31.0356 87.3359V52.9329C31.0356 52.7559 31.0356 52.5789 31.1242 52.4019H48.3039C51.3131 52.4019 53.7913 54.7916 53.7913 57.8893C53.7913 59.3939 54.4109 60.8101 55.3845 61.7836C56.4465 62.8457 57.6857 63.3768 59.2788 63.3768H84.2458C87.2551 63.3768 89.7333 60.9871 89.7333 57.8893C89.7333 56.3847 90.3528 54.9686 91.3264 53.995C92.3885 52.9329 93.6276 52.4019 95.1322 52.4019H111.223C111.4 52.5789 111.4 52.8444 111.4 53.1099Z" fill="white"/>
</g>
<g filter="url(#filter1_d_16703_52142)">
<path d="M116.618 51.3V91.1C116.618 96.6 112.218 101 106.618 101H35.8179C30.3179 101 25.8179 96.6 25.8179 91.1V51.1C25.8179 50.9 25.8179 50.7 25.9179 50.5H48.7179C52.1179 50.5 54.9179 53.2 54.9179 56.7C54.9179 58.4 55.6179 60 56.7179 61.1C57.9179 62.3 59.3179 62.9 61.1179 62.9H81.4179C84.8179 62.9 87.6179 60.2 87.6179 56.7C87.6179 55 88.3179 53.4 89.4179 52.3C90.6179 51.1 92.0179 50.5 93.7179 50.5H116.418C116.618 50.7 116.618 51 116.618 51.3Z" fill="url(#paint1_linear_16703_52142)"/>
</g>
<path d="M106.618 86.6H86.0178C85.3178 86.6 84.7178 86.1 84.7178 85.3C84.7178 84.6 85.2178 84 86.0178 84H106.418C107.118 84 107.718 84.5 107.718 85.3C107.818 85.9 107.218 86.6 106.618 86.6Z" fill="#E6ECF5"/>
<path d="M97.4178 92.9H86.0178C85.3178 92.9 84.7178 92.4 84.7178 91.6C84.7178 90.9 85.2178 90.3 86.0178 90.3H97.3178C98.0178 90.3 98.6178 90.8 98.6178 91.6C98.7178 92.2 98.1178 92.9 97.4178 92.9Z" fill="#E6ECF5"/>
<path d="M129 30.8001C131.264 30.8001 133.1 28.9645 133.1 26.7001C133.1 24.4357 131.264 22.6001 129 22.6001C126.736 22.6001 124.9 24.4357 124.9 26.7001C124.9 28.9645 126.736 30.8001 129 30.8001Z" fill="#EAEEF9"/>
<path d="M124.9 17.4999C126.446 17.4999 127.7 16.2463 127.7 14.6999C127.7 13.1535 126.446 11.8999 124.9 11.8999C123.354 11.8999 122.1 13.1535 122.1 14.6999C122.1 16.2463 123.354 17.4999 124.9 17.4999Z" fill="#EAEEF9"/>
<path d="M11.5002 26.7001C13.0466 26.7001 14.3002 25.4465 14.3002 23.9001C14.3002 22.3537 13.0466 21.1001 11.5002 21.1001C9.9538 21.1001 8.7002 22.3537 8.7002 23.9001C8.7002 25.4465 9.9538 26.7001 11.5002 26.7001Z" fill="#EAEEF9"/>
<path d="M5.2 88.2999C8.07188 88.2999 10.4 85.9718 10.4 83.0999C10.4 80.228 8.07188 77.8999 5.2 77.8999C2.32812 77.8999 0 80.228 0 83.0999C0 85.9718 2.32812 88.2999 5.2 88.2999Z" fill="#EAEEF9"/>
<defs>
<filter id="filter0_d_16703_52142" x="18.0356" y="36.4019" width="106.365" height="69.6963" filterUnits="userSpaceOnUse" color-interpolation-filters="sRGB">
<feFlood flood-opacity="0" result="BackgroundImageFix"/>
<feColorMatrix in="SourceAlpha" type="matrix" values="0 0 0 0 0 0 0 0 0 0 0 0 0 0 0 0 0 0 127 0" result="hardAlpha"/>
<feOffset dy="-3"/>
<feGaussianBlur stdDeviation="6.5"/>
<feColorMatrix type="matrix" values="0 0 0 0 0.397708 0 0 0 0 0.47749 0 0 0 0 0.575 0 0 0 0.27 0"/>
<feBlend mode="normal" in2="BackgroundImageFix" result="effect1_dropShadow_16703_52142"/>
<feBlend mode="normal" in="SourceGraphic" in2="effect1_dropShadow_16703_52142" result="shape"/>
</filter>
<filter id="filter1_d_16703_52142" x="3.81787" y="39.5" width="134.8" height="94.5" filterUnits="userSpaceOnUse" color-interpolation-filters="sRGB">
<feFlood flood-opacity="0" result="BackgroundImageFix"/>
<feColorMatrix in="SourceAlpha" type="matrix" values="0 0 0 0 0 0 0 0 0 0 0 0 0 0 0 0 0 0 127 0" result="hardAlpha"/>
<feOffset dy="11"/>
<feGaussianBlur stdDeviation="11"/>
<feColorMatrix type="matrix" values="0 0 0 0 0.397708 0 0 0 0 0.47749 0 0 0 0 0.575 0 0 0 0.27 0"/>
<feBlend mode="normal" in2="BackgroundImageFix" result="effect1_dropShadow_16703_52142"/>
<feBlend mode="normal" in="SourceGraphic" in2="effect1_dropShadow_16703_52142" result="shape"/>
</filter>
<linearGradient id="paint0_linear_16703_52142" x1="71.225" y1="18.1805" x2="71.225" y2="66.3392" gradientUnits="userSpaceOnUse">
<stop stop-color="#B0BACC"/>
<stop offset="1" stop-color="#969EAE"/>
</linearGradient>
<linearGradient id="paint1_linear_16703_52142" x1="71.1883" y1="49.3319" x2="71.1883" y2="101.544" gradientUnits="userSpaceOnUse">
<stop stop-color="#FDFEFF"/>
<stop offset="0.9964" stop-color="#ECF0F5"/>
</linearGradient>
</defs>
</svg>
