<svg width="119" height="123" viewBox="0 0 119 123" fill="none" xmlns="http://www.w3.org/2000/svg">
<path d="M104.11 45.3347C106.222 45.3347 107.934 43.6209 107.934 41.5067C107.934 39.3926 106.222 37.6787 104.11 37.6787C101.997 37.6787 100.285 39.3926 100.285 41.5067C100.285 43.6209 101.997 45.3347 104.11 45.3347Z" fill="#EAEEF9"/>
<path d="M2.51618 66.0359C3.90582 66.0359 5.03235 64.9083 5.03235 63.5175C5.03235 62.1266 3.90582 60.999 2.51618 60.999C1.12653 60.999 0 62.1266 0 63.5175C0 64.9083 1.12653 66.0359 2.51618 66.0359Z" fill="#EAEEF9"/>
<path d="M14.0825 111.312C15.4722 111.312 16.5987 110.185 16.5987 108.794C16.5987 107.403 15.4722 106.275 14.0825 106.275C12.6929 106.275 11.5663 107.403 11.5663 108.794C11.5663 110.185 12.6929 111.312 14.0825 111.312Z" fill="#EAEEF9"/>
<path d="M27.5325 111.312L62.8415 100.248V54.8867L27.5325 65.8654V111.312Z" fill="#B7BFCD"/>
<path opacity="0.4" d="M98.1504 111.312L62.8414 100.248V54.8867L98.1504 65.8654V111.312Z" fill="#6D7C9A"/>
<g opacity="0.13">
<path d="M27.5325 111.312L62.8415 100.248V54.8867L27.5325 65.8654V111.312Z" fill="url(#paint0_linear_1806_5962)"/>
<path d="M98.1504 111.312L62.8415 100.248V54.8867L98.1504 65.8654V111.312Z" fill="url(#paint1_linear_1806_5962)"/>
</g>
<path d="M62.8415 122.462L27.5325 111.398V66.0361L62.8415 77.1V122.462Z" fill="#EDF1F9"/>
<path d="M62.8414 122.462L98.1504 111.398V66.0361L62.8414 77.1V122.462Z" fill="#DAE1ED"/>
<path opacity="0.09" d="M54.8415 114.462L27.5325 111.398V66.0361L62.8415 77.1L54.8415 114.462Z" fill="url(#paint2_linear_1806_5962)"/>
<path opacity="0.2" d="M70.8414 106.462L98.1504 111.398V66.0361L62.8414 77.1L70.8414 106.462Z" fill="url(#paint3_linear_1806_5962)"/>
<path d="M62.8414 54.887L46.2403 42.4614L10.3414 54.5465L27.5324 65.8657L62.8414 54.887Z" fill="#DAE1ED"/>
<path d="M62.8414 54.887L79.4426 42.4614L115.341 54.5465L98.1504 65.8657L62.8414 54.887Z" fill="#DAE1ED"/>
<path d="M27.5324 66.0361L62.8414 77.1L45.2291 88.334L10.3414 76.7595L27.5324 66.0361Z" fill="#EFF4FD"/>
<path d="M98.1504 66.0361L62.8414 77.1L80.4538 88.334L115.341 76.7595L98.1504 66.0361Z" fill="#EDF1F9"/>
<path d="M72.6929 11.338C77.6395 24.7624 79.1139 27.7452 79.5978 40.9731C79.4117 43.9926 79.2963 47.276 77.8728 49.9199C75.9717 53.9643 71.3216 56.7653 66.9283 56.8107C62.4024 56.8916 57.9653 54.1204 55.9681 49.8473C54.563 47.254 54.6077 43.7067 56.5351 41.3522C58.6304 39.094 62.3166 38.531 64.9683 39.942C67.8852 41.2819 69.6262 44.0681 70.2711 47.0064C70.916 49.9448 70.6326 53.1317 69.8455 56.0294C68.1992 63.0768 66.8357 63.4178 62.7984 75.3495" stroke="#ABB5CC" stroke-width="2" stroke-miterlimit="10" stroke-dasharray="4 4"/>
<path d="M78.7132 4.23251C78.7017 6.20649 76.8647 7.41518 74.5352 6.78489C72.0824 6.36678 70.3465 5.93586 70.2347 4.17406C70.291 2.36726 72.2623 1.66011 74.5696 0.862967C77.3362 -0.236354 78.5566 2.30354 78.7132 4.23251Z" fill="#DAE2EB"/>
<path d="M62.8641 10.2689C64.1071 11.5485 66.7279 11.9216 68.005 9.96704C69.4053 7.80026 70.604 6.22502 69.3162 4.7782C68.0731 3.49857 66.8634 4.36009 64.0968 5.45941C61.879 6.59092 61.4083 8.86706 62.8641 10.2689Z" fill="#DAE2EB"/>
<path d="M68.5998 2.10331C69.7311 1.62115 71.0862 1.97488 71.6909 2.88797C71.9485 3.17733 72.2508 3.63388 72.3403 3.96824C73.3032 6.21876 73.0005 8.44992 71.7012 8.97708C70.2787 9.71641 68.3189 8.44959 67.5688 6.32124C67.3897 5.65252 67.3001 5.31816 67.1658 4.81662C67.0204 3.60136 67.4685 2.58547 68.5998 2.10331C68.5998 2.10331 68.7678 2.05831 68.5998 2.10331Z" fill="#989FB0"/>
<path d="M16.5987 38.3316H14.4087V36.1416H12.5315V38.3316H10.3414V40.2714H12.5315V42.4614H14.4087V40.2714H16.5987V38.3316Z" fill="url(#paint4_linear_1806_5962)"/>
<path d="M21.4094 93.2784H19.2193V91.0884H17.3421V93.2784H15.1521V95.2182H17.3421V97.4082H19.2193V95.2182H21.4094V93.2784Z" fill="url(#paint5_linear_1806_5962)"/>
<path d="M117.147 93.4028L114.468 92.0499L115.82 89.3704L113.524 88.2108L112.171 90.8903L109.491 89.5375L108.293 91.9108L110.973 93.2636L109.62 95.9432L111.916 97.1028L113.269 94.4232L115.949 95.7761L117.147 93.4028Z" fill="url(#paint6_linear_1806_5962)"/>
<defs>
<linearGradient id="paint0_linear_1806_5962" x1="51.6952" y1="58.172" x2="46.8792" y2="78.2218" gradientUnits="userSpaceOnUse">
<stop offset="0.00289017" stop-color="#606673" stop-opacity="0"/>
<stop offset="1" stop-color="#373C47"/>
</linearGradient>
<linearGradient id="paint1_linear_1806_5962" x1="51.6952" y1="58.172" x2="46.8792" y2="78.2218" gradientUnits="userSpaceOnUse">
<stop offset="0.00289017" stop-color="#606673" stop-opacity="0"/>
<stop offset="1" stop-color="#373C47"/>
</linearGradient>
<linearGradient id="paint2_linear_1806_5962" x1="35.4485" y1="97.0814" x2="43.9311" y2="73.1233" gradientUnits="userSpaceOnUse">
<stop offset="0.00289017" stop-color="#6C80AA" stop-opacity="0"/>
<stop offset="1" stop-color="#5D6A86"/>
</linearGradient>
<linearGradient id="paint3_linear_1806_5962" x1="81.8972" y1="103.626" x2="82.5643" y2="73.2233" gradientUnits="userSpaceOnUse">
<stop offset="0.00289017" stop-color="#314F91" stop-opacity="0"/>
<stop offset="1" stop-color="#324264"/>
</linearGradient>
<linearGradient id="paint4_linear_1806_5962" x1="13.4706" y1="36.3611" x2="13.4706" y2="39.9084" gradientUnits="userSpaceOnUse">
<stop stop-color="#B0BACC"/>
<stop offset="1" stop-color="#969EAE"/>
</linearGradient>
<linearGradient id="paint5_linear_1806_5962" x1="18.2812" y1="91.3079" x2="18.2812" y2="94.8552" gradientUnits="userSpaceOnUse">
<stop stop-color="#B0BACC"/>
<stop offset="1" stop-color="#969EAE"/>
</linearGradient>
<linearGradient id="paint6_linear_1806_5962" x1="114.537" y1="89.0595" x2="112.346" y2="93.3996" gradientUnits="userSpaceOnUse">
<stop stop-color="#B0BACC"/>
<stop offset="1" stop-color="#969EAE"/>
</linearGradient>
</defs>
</svg>
