<svg width="138" height="133" viewBox="0 0 138 133" fill="none" xmlns="http://www.w3.org/2000/svg">
<path d="M70.9017 119.23C98.9017 119.23 121.602 96.5296 121.602 68.4296C121.602 40.3296 98.8017 17.6296 70.9017 17.6296C42.9017 17.6296 20.2017 40.3296 20.2017 68.4296C20.2017 96.5296 42.9017 119.23 70.9017 119.23Z" fill="#EAEEF9"/>
<path d="M124.751 101.207C127.016 101.207 128.851 99.371 128.851 97.1066C128.851 94.8422 127.016 93.0066 124.751 93.0066C122.487 93.0066 120.651 94.8422 120.651 97.1066C120.651 99.371 122.487 101.207 124.751 101.207Z" fill="#EAEEF9"/>
<path d="M130.752 85.2064C132.298 85.2064 133.552 83.9528 133.552 82.4064C133.552 80.86 132.298 79.6064 130.752 79.6064C129.205 79.6064 127.952 80.86 127.952 82.4064C127.952 83.9528 129.205 85.2064 130.752 85.2064Z" fill="#EAEEF9"/>
<path d="M22.9016 35.0297C24.448 35.0297 25.7016 33.7761 25.7016 32.2297C25.7016 30.6833 24.448 29.4297 22.9016 29.4297C21.3552 29.4297 20.1016 30.6833 20.1016 32.2297C20.1016 33.7761 21.3552 35.0297 22.9016 35.0297Z" fill="#EAEEF9"/>
<path d="M5.80156 89.0296C8.67344 89.0296 11.0016 86.7015 11.0016 83.8296C11.0016 80.9578 8.67344 78.6296 5.80156 78.6296C2.92968 78.6296 0.601562 80.9578 0.601562 83.8296C0.601562 86.7015 2.92968 89.0296 5.80156 89.0296Z" fill="#EAEEF9"/>
<path d="M77.2629 86.8479H65.9957C63.385 86.8479 61.1865 89.2562 61.1865 92.1161V98.2875C61.1865 104.609 65.8583 109.727 71.6293 109.727C77.4003 109.727 82.072 104.609 82.072 98.2875V92.1161C82.072 89.1057 79.8735 86.8479 77.2629 86.8479Z" fill="white"/>
<g filter="url(#filter0_d_4224_284)">
<path fill-rule="evenodd" clip-rule="evenodd" d="M76.2628 27.7135C87.2875 30.2636 95.4995 40.137 95.4995 51.9362V55.0955C95.4995 81.7438 115.561 99.1889 115.561 99.1889H25.5605C25.5605 99.1889 45.759 81.7438 45.759 55.0955V51.9362C45.759 40.137 53.971 30.2636 64.9957 27.7135V26.6614C64.9957 23.5021 67.4689 21.0295 70.6292 21.0295C73.7896 21.0295 76.2628 23.5021 76.2628 26.6614V27.7135Z" fill="url(#paint0_linear_4224_284)"/>
</g>
<path d="M60.1866 65.9473C56.7515 65.9473 53.866 63.7495 52.7667 60.5901C52.4919 59.9033 52.9041 59.2165 53.5912 58.9418C54.2782 58.667 54.9652 59.0791 55.24 59.7659C55.927 61.8264 57.9881 63.3374 60.1866 63.3374C62.3851 63.3374 64.4461 61.9637 65.1332 59.7659C65.408 59.0791 66.095 58.667 66.782 58.9418C67.469 59.2165 67.8812 59.9033 67.6064 60.5901C66.5072 63.8868 63.6217 65.9473 60.1866 65.9473Z" fill="#ADB6C8"/>
<path d="M80.9346 65.9473C77.4995 65.9473 74.614 63.7495 73.5148 60.5901C73.24 59.9033 73.6522 59.2165 74.3392 58.9418C75.0262 58.667 75.7133 59.0791 75.9881 59.7659C76.6751 61.8264 78.7362 63.3374 80.9346 63.3374C83.1331 63.3374 85.1942 61.9637 85.8812 59.7659C86.156 59.0791 86.843 58.667 87.5301 58.9418C88.2171 59.2165 88.6293 59.9033 88.3545 60.5901C87.2552 63.8868 84.3697 65.9473 80.9346 65.9473Z" fill="#ADB6C8"/>
<path d="M70.6291 82.7659C72.3744 82.7659 73.7894 81.3515 73.7894 79.6066C73.7894 77.8617 72.3744 76.4473 70.6291 76.4473C68.8837 76.4473 67.4688 77.8617 67.4688 79.6066C67.4688 81.3515 68.8837 82.7659 70.6291 82.7659Z" fill="#ADB6C8"/>
<path d="M87.5634 5.25856V0.608887H105.534V5.25856L93.2716 20.053H105.745V24.7026H86.9292V20.053L99.1912 5.25856H87.5634Z" fill="url(#paint1_linear_4224_284)"/>
<path d="M102.362 40.131V37.1721H113.99V40.131L106.168 49.6417H114.201V52.6006H101.939V49.6417L109.762 40.131H102.362Z" fill="url(#paint2_linear_4224_284)"/>
<defs>
<filter id="filter0_d_4224_284" x="3.56055" y="10.0295" width="134" height="122.159" filterUnits="userSpaceOnUse" color-interpolation-filters="sRGB">
<feFlood flood-opacity="0" result="BackgroundImageFix"/>
<feColorMatrix in="SourceAlpha" type="matrix" values="0 0 0 0 0 0 0 0 0 0 0 0 0 0 0 0 0 0 127 0" result="hardAlpha"/>
<feOffset dy="11"/>
<feGaussianBlur stdDeviation="11"/>
<feColorMatrix type="matrix" values="0 0 0 0 0.397708 0 0 0 0 0.47749 0 0 0 0 0.575 0 0 0 0.27 0"/>
<feBlend mode="normal" in2="BackgroundImageFix" result="effect1_dropShadow_4224_284"/>
<feBlend mode="normal" in="SourceGraphic" in2="effect1_dropShadow_4224_284" result="shape"/>
</filter>
<linearGradient id="paint0_linear_4224_284" x1="70.5312" y1="19.2216" x2="70.5312" y2="100.032" gradientUnits="userSpaceOnUse">
<stop stop-color="#FDFEFF"/>
<stop offset="0.9964" stop-color="#ECF0F5"/>
</linearGradient>
<linearGradient id="paint1_linear_4224_284" x1="96.3386" y1="1.44588" x2="96.3386" y2="14.9694" gradientUnits="userSpaceOnUse">
<stop stop-color="#B0BACC"/>
<stop offset="1" stop-color="#969EAE"/>
</linearGradient>
<linearGradient id="paint2_linear_4224_284" x1="108.071" y1="37.7081" x2="108.071" y2="46.3679" gradientUnits="userSpaceOnUse">
<stop stop-color="#B0BACC"/>
<stop offset="1" stop-color="#969EAE"/>
</linearGradient>
</defs>
</svg>
