<svg width="139" height="143" viewBox="0 0 139 143" fill="none" xmlns="http://www.w3.org/2000/svg">
<path d="M71.1177 127C103.918 127 130.518 100.6 130.518 68C130.518 35.4 103.918 9 71.1177 9C38.3177 9 11.7177 35.4 11.7177 68C11.7177 100.6 38.3177 127 71.1177 127Z" fill="#EAEEF9"/>
<path d="M116.618 60.2999V96.4C116.618 103.9 110.518 110 102.918 110H39.5176C32.0176 110 25.9176 104 25.8176 96.5C25.8176 96.4 25.8176 96.4 25.8176 96.3V60.2999C25.8176 60.2 25.8176 60.1999 25.8176 60.0999C25.8176 59.8999 25.8176 59.7 25.9176 59.5C26.0176 59.2 26.1176 59 26.2176 58.7L43.2176 26.2C43.8176 24.9 45.1176 24.2 46.5176 24.2H95.8176C97.2176 24.2 98.4176 24.9 99.1176 26.2L116.118 58.7C116.218 58.9 116.318 59.2 116.418 59.5C116.618 59.7 116.618 60 116.618 60.2999Z" fill="url(#paint0_linear_1901_517)"/>
<g filter="url(#filter0_d_1901_517)">
<path d="M84.2176 60.6H58.5176C57.4176 60.6 56.5176 59.8 56.5176 58.6V23.5C56.5176 22.4 57.3176 21.5 58.5176 21.5H84.1176C85.2176 21.5 86.1176 22.3 86.1176 23.5V58.6C86.1176 59.7 85.3176 60.6 84.2176 60.6Z" fill="#F5F8FF"/>
</g>
<g filter="url(#filter1_d_1901_517)">
<path d="M92.7176 68.9001H50.0176C48.6176 68.9001 47.5176 67.7001 47.5176 66.4001V32.3C47.5176 30.9 48.7176 29.8 50.0176 29.8H92.7176C94.1176 29.8 95.2176 31 95.2176 32.3V66.4001C95.1176 67.8001 94.1176 68.9001 92.7176 68.9001Z" fill="#F5F8FF"/>
</g>
<g filter="url(#filter2_d_1901_517)">
<path d="M97.6177 78.6H45.2177C43.7177 78.6 42.4177 77.3 42.4177 75.9V42.3C42.4177 40.8 43.7177 39.6 45.2177 39.6H97.6177C99.1177 39.6 100.418 40.9 100.418 42.3V75.8C100.318 77.4 99.1177 78.6 97.6177 78.6Z" fill="#F5F8FF"/>
</g>
<g filter="url(#filter3_d_1901_517)">
<path d="M102.918 88H39.9177C38.2177 88 36.9177 86.6 36.9177 85.1V52C36.9177 50.3 38.3177 49.1 39.9177 49.1H102.918C104.618 49.1 105.918 50.5 105.918 52V85C105.818 86.7 104.618 88 102.918 88Z" fill="#F5F8FF"/>
</g>
<path d="M84.0177 62.2001H60.3177C59.7177 62.2001 59.1177 61.7 59.1177 61C59.1177 60.4 59.6177 59.8 60.3177 59.8H84.0177C84.6177 59.8 85.2177 60.3 85.2177 61C85.2177 61.7 84.7177 62.2001 84.0177 62.2001Z" fill="#E6ECF5"/>
<path d="M77.1177 69.2001H47.1177C46.7177 69.2001 46.4177 68.9 46.4177 68.5C46.4177 68.1 46.7177 67.8 47.1177 67.8H77.0177C77.4177 67.8 77.7177 68.1 77.7177 68.5C77.9177 68.7 77.6177 69.2001 77.1177 69.2001Z" fill="#E6ECF5"/>
<path d="M96.8176 69.2001H81.7176C81.3176 69.2001 81.0176 68.9 81.0176 68.5C81.0176 68.1 81.3176 67.8 81.7176 67.8H96.7176C97.1176 67.8 97.4176 68.1 97.4176 68.5C97.6176 68.7 97.3176 69.2001 96.8176 69.2001Z" fill="#E6ECF5"/>
<g filter="url(#filter4_d_1901_517)">
<path d="M111.4 62.1099V96.3359C111.4 101.204 107.506 105.098 102.549 105.098H39.886C35.0181 105.098 31.0352 101.204 31.0352 96.3359V61.9329C31.0352 61.7559 31.0352 61.5789 31.1237 61.4019H48.3034C51.3127 61.4019 53.7909 63.7916 53.7909 66.8893C53.7909 68.3939 54.4104 69.8101 55.384 70.7836C56.4461 71.8457 57.6852 72.3768 59.2784 72.3768H84.2454C87.2546 72.3768 89.7328 69.9871 89.7328 66.8893C89.7328 65.3847 90.3524 63.9686 91.326 62.995C92.3881 61.9329 93.6272 61.4019 95.1318 61.4019H111.223C111.4 61.5789 111.4 61.8444 111.4 62.1099Z" fill="white"/>
</g>
<g filter="url(#filter5_d_1901_517)">
<path d="M116.618 60.3V100.1C116.618 105.6 112.218 110 106.618 110H35.8176C30.3176 110 25.8176 105.6 25.8176 100.1V60.1C25.8176 59.9 25.8176 59.7 25.9176 59.5H48.7176C52.1176 59.5 54.9176 62.2 54.9176 65.7C54.9176 67.4 55.6176 69 56.7176 70.1C57.9176 71.3 59.3176 71.9 61.1176 71.9H81.4176C84.8176 71.9 87.6176 69.2 87.6176 65.7C87.6176 64 88.3176 62.4 89.4176 61.3C90.6176 60.1 92.0176 59.5 93.7176 59.5H116.418C116.618 59.7 116.618 60 116.618 60.3Z" fill="url(#paint1_linear_1901_517)"/>
</g>
<path d="M106.618 95.6H86.0177C85.3177 95.6 84.7177 95.1 84.7177 94.3C84.7177 93.6 85.2177 93 86.0177 93H106.418C107.118 93 107.718 93.5 107.718 94.3C107.818 94.9 107.218 95.6 106.618 95.6Z" fill="#E6ECF5"/>
<path d="M97.4176 101.9H86.0177C85.3177 101.9 84.7177 101.4 84.7177 100.6C84.7177 99.9 85.2177 99.3 86.0177 99.3H97.3176C98.0176 99.3 98.6177 99.8 98.6177 100.6C98.7177 101.2 98.1176 101.9 97.4176 101.9Z" fill="#E6ECF5"/>
<path d="M90.3249 106.1C89.9249 107.8 89.3249 109.6 88.6249 111.1C86.7249 114.8 83.7249 117.7 80.0249 119.6C76.2249 121.5 71.7249 122.3 67.2249 121.3C56.5249 119 49.7249 108.7 51.9249 98.1C54.1249 87.5 64.4249 80.6 75.0249 82.9C78.8249 83.7 82.1249 85.6 84.9249 88.2C89.7249 92.9 91.6249 99.6 90.3249 106.1Z" fill="url(#paint2_linear_1901_517)"/>
<path d="M77.3176 100.3H72.8176V95.8C72.8176 94.9 72.1177 94.1 71.1177 94.1C70.2177 94.1 69.4177 94.8 69.4177 95.8V100.3H64.9177C64.0177 100.3 63.2177 101 63.2177 102C63.2177 103 63.9177 103.7 64.9177 103.7H69.4177V108.2C69.4177 109.1 70.1177 109.9 71.1177 109.9C72.0177 109.9 72.8176 109.2 72.8176 108.2V103.7H77.3176C78.2176 103.7 79.0177 103 79.0177 102C79.0177 101 78.2176 100.3 77.3176 100.3Z" fill="white"/>
<path d="M129 39.8C131.264 39.8 133.1 37.9643 133.1 35.7C133.1 33.4356 131.264 31.6 129 31.6C126.736 31.6 124.9 33.4356 124.9 35.7C124.9 37.9643 126.736 39.8 129 39.8Z" fill="#EAEEF9"/>
<path d="M124.9 26.5C126.446 26.5 127.7 25.2464 127.7 23.7C127.7 22.1536 126.446 20.9 124.9 20.9C123.354 20.9 122.1 22.1536 122.1 23.7C122.1 25.2464 123.354 26.5 124.9 26.5Z" fill="#EAEEF9"/>
<path d="M11.5 35.7C13.0464 35.7 14.3 34.4464 14.3 32.9C14.3 31.3536 13.0464 30.1 11.5 30.1C9.95362 30.1 8.70001 31.3536 8.70001 32.9C8.70001 34.4464 9.95362 35.7 11.5 35.7Z" fill="#EAEEF9"/>
<path d="M5.2 97.3C8.07188 97.3 10.4 94.9719 10.4 92.1C10.4 89.2281 8.07188 86.9 5.2 86.9C2.32812 86.9 0 89.2281 0 92.1C0 94.9719 2.32812 97.3 5.2 97.3Z" fill="#EAEEF9"/>
<defs>
<filter id="filter0_d_1901_517" x="34.5176" y="0.5" width="73.6" height="83.1" filterUnits="userSpaceOnUse" color-interpolation-filters="sRGB">
<feFlood flood-opacity="0" result="BackgroundImageFix"/>
<feColorMatrix in="SourceAlpha" type="matrix" values="0 0 0 0 0 0 0 0 0 0 0 0 0 0 0 0 0 0 127 0" result="hardAlpha"/>
<feOffset dy="1"/>
<feGaussianBlur stdDeviation="11"/>
<feColorMatrix type="matrix" values="0 0 0 0 0.397708 0 0 0 0 0.47749 0 0 0 0 0.575 0 0 0 0.18 0"/>
<feBlend mode="normal" in2="BackgroundImageFix" result="effect1_dropShadow_1901_517"/>
<feBlend mode="normal" in="SourceGraphic" in2="effect1_dropShadow_1901_517" result="shape"/>
</filter>
<filter id="filter1_d_1901_517" x="25.5176" y="8.80005" width="91.7" height="83.1" filterUnits="userSpaceOnUse" color-interpolation-filters="sRGB">
<feFlood flood-opacity="0" result="BackgroundImageFix"/>
<feColorMatrix in="SourceAlpha" type="matrix" values="0 0 0 0 0 0 0 0 0 0 0 0 0 0 0 0 0 0 127 0" result="hardAlpha"/>
<feOffset dy="1"/>
<feGaussianBlur stdDeviation="11"/>
<feColorMatrix type="matrix" values="0 0 0 0 0.397708 0 0 0 0 0.47749 0 0 0 0 0.575 0 0 0 0.18 0"/>
<feBlend mode="normal" in2="BackgroundImageFix" result="effect1_dropShadow_1901_517"/>
<feBlend mode="normal" in="SourceGraphic" in2="effect1_dropShadow_1901_517" result="shape"/>
</filter>
<filter id="filter2_d_1901_517" x="20.4177" y="18.6" width="102" height="83" filterUnits="userSpaceOnUse" color-interpolation-filters="sRGB">
<feFlood flood-opacity="0" result="BackgroundImageFix"/>
<feColorMatrix in="SourceAlpha" type="matrix" values="0 0 0 0 0 0 0 0 0 0 0 0 0 0 0 0 0 0 127 0" result="hardAlpha"/>
<feOffset dy="1"/>
<feGaussianBlur stdDeviation="11"/>
<feColorMatrix type="matrix" values="0 0 0 0 0.397708 0 0 0 0 0.47749 0 0 0 0 0.575 0 0 0 0.18 0"/>
<feBlend mode="normal" in2="BackgroundImageFix" result="effect1_dropShadow_1901_517"/>
<feBlend mode="normal" in="SourceGraphic" in2="effect1_dropShadow_1901_517" result="shape"/>
</filter>
<filter id="filter3_d_1901_517" x="14.9177" y="28.1" width="113" height="82.9" filterUnits="userSpaceOnUse" color-interpolation-filters="sRGB">
<feFlood flood-opacity="0" result="BackgroundImageFix"/>
<feColorMatrix in="SourceAlpha" type="matrix" values="0 0 0 0 0 0 0 0 0 0 0 0 0 0 0 0 0 0 127 0" result="hardAlpha"/>
<feOffset dy="1"/>
<feGaussianBlur stdDeviation="11"/>
<feColorMatrix type="matrix" values="0 0 0 0 0.397708 0 0 0 0 0.47749 0 0 0 0 0.575 0 0 0 0.18 0"/>
<feBlend mode="normal" in2="BackgroundImageFix" result="effect1_dropShadow_1901_517"/>
<feBlend mode="normal" in="SourceGraphic" in2="effect1_dropShadow_1901_517" result="shape"/>
</filter>
<filter id="filter4_d_1901_517" x="18.0352" y="45.4019" width="106.365" height="69.6963" filterUnits="userSpaceOnUse" color-interpolation-filters="sRGB">
<feFlood flood-opacity="0" result="BackgroundImageFix"/>
<feColorMatrix in="SourceAlpha" type="matrix" values="0 0 0 0 0 0 0 0 0 0 0 0 0 0 0 0 0 0 127 0" result="hardAlpha"/>
<feOffset dy="-3"/>
<feGaussianBlur stdDeviation="6.5"/>
<feColorMatrix type="matrix" values="0 0 0 0 0.397708 0 0 0 0 0.47749 0 0 0 0 0.575 0 0 0 0.27 0"/>
<feBlend mode="normal" in2="BackgroundImageFix" result="effect1_dropShadow_1901_517"/>
<feBlend mode="normal" in="SourceGraphic" in2="effect1_dropShadow_1901_517" result="shape"/>
</filter>
<filter id="filter5_d_1901_517" x="3.81763" y="48.5" width="134.8" height="94.5" filterUnits="userSpaceOnUse" color-interpolation-filters="sRGB">
<feFlood flood-opacity="0" result="BackgroundImageFix"/>
<feColorMatrix in="SourceAlpha" type="matrix" values="0 0 0 0 0 0 0 0 0 0 0 0 0 0 0 0 0 0 127 0" result="hardAlpha"/>
<feOffset dy="11"/>
<feGaussianBlur stdDeviation="11"/>
<feColorMatrix type="matrix" values="0 0 0 0 0.397708 0 0 0 0 0.47749 0 0 0 0 0.575 0 0 0 0.27 0"/>
<feBlend mode="normal" in2="BackgroundImageFix" result="effect1_dropShadow_1901_517"/>
<feBlend mode="normal" in="SourceGraphic" in2="effect1_dropShadow_1901_517" result="shape"/>
</filter>
<linearGradient id="paint0_linear_1901_517" x1="71.2248" y1="27.1805" x2="71.2248" y2="75.3392" gradientUnits="userSpaceOnUse">
<stop stop-color="#B0BACC"/>
<stop offset="1" stop-color="#969EAE"/>
</linearGradient>
<linearGradient id="paint1_linear_1901_517" x1="71.188" y1="58.3319" x2="71.188" y2="110.544" gradientUnits="userSpaceOnUse">
<stop stop-color="#FDFEFF"/>
<stop offset="0.9964" stop-color="#ECF0F5"/>
</linearGradient>
<linearGradient id="paint2_linear_1901_517" x1="71.1207" y1="83.8218" x2="71.1207" y2="105.867" gradientUnits="userSpaceOnUse">
<stop stop-color="#B0BACC"/>
<stop offset="1" stop-color="#969EAE"/>
</linearGradient>
</defs>
</svg>
