<svg width="24" height="24" viewBox="0 0 24 24" fill="none" xmlns="http://www.w3.org/2000/svg">
<path d="M6.25 2.5C4.74011 2.5 3.5 3.74011 3.5 5.25V18.75C3.5 20.2599 4.74011 21.5 6.25 21.5H12.25C13.7599 21.5 15 20.2599 15 18.75V14H13.5V18.75C13.5 19.4491 12.9491 20 12.25 20H6.25C5.55089 20 5 19.4491 5 18.75V5.25C5 4.55089 5.55089 4 6.25 4H12.25C12.9491 4 13.5 4.55089 13.5 5.25V10H15V5.25C15 3.74011 13.7599 2.5 12.25 2.5H6.25ZM17.2422 7.74219C17.0929 7.74222 16.9471 7.78679 16.8233 7.87019C16.6995 7.95358 16.6034 8.07202 16.5473 8.21033C16.4912 8.34865 16.4776 8.50056 16.5084 8.64662C16.5391 8.79269 16.6127 8.92627 16.7197 9.03027L18.9395 11.25H7.75C7.65062 11.2486 7.55194 11.267 7.45972 11.304C7.36749 11.3411 7.28355 11.3961 7.21277 11.4659C7.142 11.5357 7.08579 11.6188 7.04743 11.7105C7.00907 11.8022 6.98932 11.9006 6.98932 12C6.98932 12.0994 7.00907 12.1978 7.04743 12.2895C7.08579 12.3812 7.142 12.4643 7.21277 12.5341C7.28355 12.6039 7.36749 12.6589 7.45972 12.696C7.55194 12.733 7.65062 12.7514 7.75 12.75H18.9395L16.7197 14.9697C16.6477 15.0388 16.5903 15.1216 16.5507 15.2132C16.5111 15.3048 16.4902 15.4034 16.4892 15.5032C16.4882 15.6029 16.5071 15.7019 16.5448 15.7943C16.5825 15.8867 16.6383 15.9706 16.7088 16.0412C16.7794 16.1117 16.8633 16.1675 16.9557 16.2052C17.0481 16.2429 17.1471 16.2618 17.2468 16.2608C17.3466 16.2598 17.4452 16.2389 17.5368 16.1993C17.6284 16.1597 17.7112 16.1023 17.7803 16.0303L21.2803 12.5303C21.4209 12.3896 21.4999 12.1989 21.4999 12C21.4999 11.8011 21.4209 11.6104 21.2803 11.4697L17.7803 7.96973C17.7104 7.89773 17.6267 7.8405 17.5343 7.80142C17.4419 7.76233 17.3425 7.74219 17.2422 7.74219Z" fill="#243B53"/>
</svg>
