<svg width="50" height="50" viewBox="0 0 50 50" fill="none" xmlns="http://www.w3.org/2000/svg">
<path fill-rule="evenodd" clip-rule="evenodd" d="M25 44.0299C36.2183 44.0299 45.3125 35.2228 45.3125 24.3587C45.3125 13.4946 36.2183 4.6875 25 4.6875C13.7817 4.6875 4.6875 13.4946 4.6875 24.3587C4.6875 30.2675 7.37763 35.5678 11.6365 39.1737V43.1544C11.6365 44.7102 13.2212 45.7537 14.6342 45.1283L19.0515 43.173C20.9329 43.7301 22.9303 44.0299 25 44.0299Z" fill="url(#paint0_linear_1806_5309)"/>
<path d="M20.1359 20.1771L14.2457 28.2327C13.6141 29.0965 14.7499 30.1341 15.6146 29.4833L20.6442 25.6982C21.1561 25.313 21.8738 25.3078 22.3917 25.6856L26.8649 28.9488C27.7227 29.5746 28.9487 29.3946 29.5733 28.5512L35.7508 20.2095C36.3914 19.3444 35.2469 18.2983 34.381 18.9576L29.0635 23.0056C28.5514 23.3954 27.83 23.4026 27.3097 23.023L22.851 19.7705C21.9896 19.1421 20.7579 19.3265 20.1359 20.1771Z" fill="white"/>
<defs>
<linearGradient id="paint0_linear_1806_5309" x1="25" y1="4.6875" x2="18.4822" y2="45.0911" gradientUnits="userSpaceOnUse">
<stop stop-color="#00B1FF"/>
<stop offset="1" stop-color="#006BFF"/>
</linearGradient>
</defs>
</svg>
