<svg width="80" height="52" viewBox="0 0 80 52" fill="none" xmlns="http://www.w3.org/2000/svg">
<rect width="80" height="52" fill="white" fill-opacity="0.01"/>
<g opacity="0.3" clip-path="url(#clip0_1923_704)">
<path d="M30.7188 17.7188C29.4999 18.9375 28.533 20.3845 27.8733 21.977C27.2136 23.5695 26.8741 25.2763 26.8741 27C26.8741 28.7237 27.2136 30.4305 27.8733 32.023C28.533 33.6155 29.4999 35.0625 30.7188 36.2812C30.8896 36.4581 30.9841 36.6949 30.9819 36.9407C30.9798 37.1865 30.8812 37.4216 30.7074 37.5955C30.5336 37.7693 30.2984 37.8679 30.0526 37.87C29.8068 37.8721 29.57 37.7776 29.3932 37.6069C28.0002 36.214 26.8953 34.5604 26.1414 32.7404C25.3875 30.9205 24.9995 28.9699 24.9995 27C24.9995 25.0301 25.3875 23.0795 26.1414 21.2596C26.8953 19.4396 28.0002 17.786 29.3932 16.3931C29.57 16.2224 29.8068 16.1279 30.0526 16.13C30.2984 16.1321 30.5336 16.2307 30.7074 16.4045C30.8812 16.5784 30.9798 16.8135 30.9819 17.0593C30.9841 17.3051 30.8896 17.5419 30.7188 17.7188ZM34.6976 21.6975C33.2915 23.104 32.5017 25.0113 32.5017 27C32.5017 28.9887 33.2915 30.896 34.6976 32.3025C34.7847 32.3897 34.8539 32.4931 34.901 32.607C34.9482 32.7209 34.9725 32.843 34.9725 32.9662C34.9725 33.0895 34.9482 33.2116 34.901 33.3255C34.8539 33.4394 34.7847 33.5428 34.6976 33.63C34.6104 33.7172 34.5069 33.7863 34.393 33.8335C34.2791 33.8807 34.1571 33.9049 34.0338 33.9049C33.9105 33.9049 33.7885 33.8807 33.6746 33.8335C33.5607 33.7863 33.4572 33.7172 33.3701 33.63C32.4992 32.7594 31.8085 31.7258 31.3372 30.5882C30.8659 29.4506 30.6233 28.2314 30.6233 27C30.6233 25.7686 30.8659 24.5494 31.3372 23.4118C31.8085 22.2742 32.4992 21.2406 33.3701 20.37C33.5461 20.194 33.7849 20.0951 34.0338 20.0951C34.2828 20.0951 34.5215 20.194 34.6976 20.37C34.8736 20.546 34.9725 20.7848 34.9725 21.0338C34.9725 21.2827 34.8736 21.5215 34.6976 21.6975ZM45.3026 20.37C45.3896 20.2827 45.4931 20.2134 45.607 20.1662C45.7209 20.1189 45.843 20.0946 45.9663 20.0946C46.0896 20.0946 46.2117 20.1189 46.3256 20.1662C46.4395 20.2134 46.543 20.2827 46.6301 20.37C47.5009 21.2406 48.1916 22.2742 48.6629 23.4118C49.1342 24.5494 49.3768 25.7686 49.3768 27C49.3768 28.2314 49.1342 29.4506 48.6629 30.5882C48.1916 31.7258 47.5009 32.7594 46.6301 33.63C46.5429 33.7172 46.4394 33.7863 46.3255 33.8335C46.2116 33.8807 46.0896 33.9049 45.9663 33.9049C45.843 33.9049 45.721 33.8807 45.6071 33.8335C45.4932 33.7863 45.3897 33.7172 45.3026 33.63C45.2154 33.5428 45.1462 33.4394 45.0991 33.3255C45.0519 33.2116 45.0276 33.0895 45.0276 32.9662C45.0276 32.843 45.0519 32.7209 45.0991 32.607C45.1462 32.4931 45.2154 32.3897 45.3026 32.3025C46.7086 30.896 47.4985 28.9887 47.4985 27C47.4985 25.0113 46.7086 23.104 45.3026 21.6975C45.2153 21.6104 45.146 21.507 45.0987 21.3931C45.0515 21.2792 45.0271 21.1571 45.0271 21.0338C45.0271 20.9104 45.0515 20.7883 45.0987 20.6744C45.146 20.5605 45.2153 20.4571 45.3026 20.37ZM49.2813 16.395C49.4571 16.2192 49.6955 16.1205 49.9441 16.1205C50.1927 16.1205 50.4311 16.2192 50.6069 16.395C53.4196 19.208 54.9997 23.023 54.9997 27.0009C54.9997 30.9789 53.4196 34.7939 50.6069 37.6069C50.4301 37.7776 50.1933 37.8721 49.9475 37.87C49.7017 37.8679 49.4665 37.7693 49.2927 37.5955C49.1189 37.4216 49.0203 37.1865 49.0182 36.9407C49.016 36.6949 49.1105 36.4581 49.2813 36.2812C50.5002 35.0625 51.4671 33.6155 52.1268 32.023C52.7865 30.4305 53.126 28.7237 53.126 27C53.126 25.2763 52.7865 23.5695 52.1268 21.977C51.4671 20.3845 50.5002 18.9375 49.2813 17.7188C49.1056 17.5429 49.0068 17.3045 49.0068 17.0559C49.0068 16.8073 49.1056 16.5689 49.2813 16.3931V16.395ZM43.7501 27C43.7501 27.9946 43.355 28.9484 42.6517 29.6516C41.9484 30.3549 40.9946 30.75 40.0001 30.75C39.0055 30.75 38.0517 30.3549 37.3484 29.6516C36.6451 28.9484 36.2501 27.9946 36.2501 27C36.2501 26.0054 36.6451 25.0516 37.3484 24.3484C38.0517 23.6451 39.0055 23.25 40.0001 23.25C40.9946 23.25 41.9484 23.6451 42.6517 24.3484C43.355 25.0516 43.7501 26.0054 43.7501 27Z" fill="#1B1212"/>
</g>
<defs>
<clipPath id="clip0_1923_704">
<rect width="30" height="30" fill="white" transform="translate(25 12)"/>
</clipPath>
</defs>
</svg>
