<svg width="80" height="52" viewBox="0 0 80 52" fill="none" xmlns="http://www.w3.org/2000/svg">
<rect width="80" height="52" fill="gray" fill-opacity="0.01"/>
<g opacity="0.3">
<path d="M38.125 37.25C38.125 37.25 36.25 37.25 36.25 35.375C36.25 33.5 38.125 27.875 45.625 27.875C53.125 27.875 55 33.5 55 35.375C55 37.25 53.125 37.25 53.125 37.25H38.125ZM45.625 26C47.1168 26 48.5476 25.4074 49.6025 24.3525C50.6574 23.2976 51.25 21.8668 51.25 20.375C51.25 18.8832 50.6574 17.4524 49.6025 16.3975C48.5476 15.3426 47.1168 14.75 45.625 14.75C44.1332 14.75 42.7024 15.3426 41.6475 16.3975C40.5926 17.4524 40 18.8832 40 20.375C40 21.8668 40.5926 23.2976 41.6475 24.3525C42.7024 25.4074 44.1332 26 45.625 26Z" fill="gray"/>
<path fill-rule="evenodd" clip-rule="evenodd" d="M34.78 37.25C34.502 36.6647 34.3634 36.0229 34.375 35.375C34.375 32.8344 35.65 30.2188 38.005 28.4C36.8295 28.0378 35.6049 27.8607 34.375 27.875C26.875 27.875 25 33.5 25 35.375C25 37.25 26.875 37.25 26.875 37.25H34.78Z" fill="gray"/>
<path d="M33.4375 26C34.6807 26 35.873 25.5061 36.7521 24.6271C37.6311 23.748 38.125 22.5557 38.125 21.3125C38.125 20.0693 37.6311 18.877 36.7521 17.9979C35.873 17.1189 34.6807 16.625 33.4375 16.625C32.1943 16.625 31.002 17.1189 30.1229 17.9979C29.2439 18.877 28.75 20.0693 28.75 21.3125C28.75 22.5557 29.2439 23.748 30.1229 24.6271C31.002 25.5061 32.1943 26 33.4375 26Z" fill="gray"/>
</g>
</svg>
