<svg width="50" height="50" viewBox="0 0 50 50" fill="none" xmlns="http://www.w3.org/2000/svg">
<rect x="2.91382" y="3.125" width="43.75" height="43.75" rx="21.875" fill="url(#paint0_radial_3906_1325)"/>
<rect x="2.91382" y="3.125" width="43.75" height="43.75" rx="21.875" fill="url(#paint1_radial_3906_1325)"/>
<rect x="2.91382" y="3.125" width="43.75" height="43.75" rx="21.875" fill="url(#paint2_radial_3906_1325)"/>
<path d="M35.7263 16.4062C35.7263 17.7007 34.677 18.75 33.3826 18.75C32.0882 18.75 31.0388 17.7007 31.0388 16.4062C31.0388 15.1118 32.0882 14.0625 33.3826 14.0625C34.677 14.0625 35.7263 15.1118 35.7263 16.4062Z" fill="white"/>
<path fill-rule="evenodd" clip-rule="evenodd" d="M24.7888 32.8125C29.1035 32.8125 32.6013 29.3147 32.6013 25C32.6013 20.6853 29.1035 17.1875 24.7888 17.1875C20.4741 17.1875 16.9763 20.6853 16.9763 25C16.9763 29.3147 20.4741 32.8125 24.7888 32.8125ZM24.7888 29.6875C27.3777 29.6875 29.4763 27.5888 29.4763 25C29.4763 22.4112 27.3777 20.3125 24.7888 20.3125C22.2 20.3125 20.1013 22.4112 20.1013 25C20.1013 27.5888 22.2 29.6875 24.7888 29.6875Z" fill="white"/>
<path fill-rule="evenodd" clip-rule="evenodd" d="M9.16382 24.375C9.16382 19.1245 9.16382 16.4993 10.1856 14.4938C11.0844 12.7298 12.5186 11.2956 14.2827 10.3968C16.2881 9.375 18.9133 9.375 24.1638 9.375H25.4138C30.6643 9.375 33.2896 9.375 35.295 10.3968C37.059 11.2956 38.4932 12.7298 39.392 14.4938C40.4138 16.4993 40.4138 19.1245 40.4138 24.375V25.625C40.4138 30.8755 40.4138 33.5007 39.392 35.5062C38.4932 37.2702 37.059 38.7044 35.295 39.6032C33.2896 40.625 30.6643 40.625 25.4138 40.625H24.1638C18.9133 40.625 16.2881 40.625 14.2827 39.6032C12.5186 38.7044 11.0844 37.2702 10.1856 35.5062C9.16382 33.5007 9.16382 30.8755 9.16382 25.625V24.375ZM24.1638 12.5H25.4138C28.0906 12.5 29.9103 12.5024 31.3168 12.6173C32.6869 12.7293 33.3875 12.9322 33.8763 13.1812C35.0523 13.7804 36.0084 14.7365 36.6076 15.9126C36.8566 16.4013 37.0595 17.1019 37.1715 18.472C37.2864 19.8785 37.2888 21.6982 37.2888 24.375V25.625C37.2888 28.3018 37.2864 30.1215 37.1715 31.528C37.0595 32.8981 36.8566 33.5987 36.6076 34.0874C36.0084 35.2635 35.0523 36.2196 33.8763 36.8188C33.3875 37.0678 32.6869 37.2707 31.3168 37.3827C29.9103 37.4976 28.0906 37.5 25.4138 37.5H24.1638C21.487 37.5 19.6673 37.4976 18.2608 37.3827C16.8908 37.2707 16.1901 37.0678 15.7014 36.8188C14.5254 36.2196 13.5692 35.2635 12.97 34.0874C12.721 33.5987 12.5181 32.8981 12.4062 31.528C12.2912 30.1215 12.2888 28.3018 12.2888 25.625V24.375C12.2888 21.6982 12.2912 19.8785 12.4062 18.472C12.5181 17.1019 12.721 16.4013 12.97 15.9126C13.5692 14.7365 14.5254 13.7804 15.7014 13.1812C16.1901 12.9322 16.8908 12.7293 18.2608 12.6173C19.6673 12.5024 21.487 12.5 24.1638 12.5Z" fill="white"/>
<defs>
<radialGradient id="paint0_radial_3906_1325" cx="0" cy="0" r="1" gradientUnits="userSpaceOnUse" gradientTransform="translate(18.5388 35.9375) rotate(-55.3758) scale(39.8744)">
<stop stop-color="#B13589"/>
<stop offset="0.79309" stop-color="#C62F94"/>
<stop offset="1" stop-color="#8A3AC8"/>
</radialGradient>
<radialGradient id="paint1_radial_3906_1325" cx="0" cy="0" r="1" gradientUnits="userSpaceOnUse" gradientTransform="translate(16.9763 48.4375) rotate(-65.1363) scale(35.3035)">
<stop stop-color="#E0E8B7"/>
<stop offset="0.444662" stop-color="#FB8A2E"/>
<stop offset="0.71474" stop-color="#E2425C"/>
<stop offset="1" stop-color="#E2425C" stop-opacity="0"/>
</radialGradient>
<radialGradient id="paint2_radial_3906_1325" cx="0" cy="0" r="1" gradientUnits="userSpaceOnUse" gradientTransform="translate(0.570071 4.6875) rotate(-8.1301) scale(60.767 12.9974)">
<stop offset="0.156701" stop-color="#406ADC"/>
<stop offset="0.467799" stop-color="#6A45BE"/>
<stop offset="1" stop-color="#6A45BE" stop-opacity="0"/>
</radialGradient>
</defs>
</svg>
