<svg width="24" height="25" viewBox="0 0 24 25" fill="none" xmlns="http://www.w3.org/2000/svg">
<path opacity="0.35" d="M12 22.5C17.5228 22.5 22 18.0228 22 12.5C22 6.97715 17.5228 2.5 12 2.5C6.47715 2.5 2 6.97715 2 12.5C2 18.0228 6.47715 22.5 12 22.5Z" fill="#FF5F5F"/>
<path fill-rule="evenodd" clip-rule="evenodd" d="M17.5 11.8C17.5 9.977 16.023 8.5 14.2 8.5C13.351 8.5 12.585 8.83 12 9.356C11.415 8.83 10.649 8.5 9.8 8.5C7.977 8.5 6.5 9.977 6.5 11.8C6.5 12.732 6.889 13.57 7.51 14.17C7.516 14.176 10.809 17.476 10.809 17.476C11.466 18.133 12.533 18.133 13.19 17.476C13.19 17.476 16.484 14.176 16.489 14.17C17.111 13.57 17.5 12.732 17.5 11.8Z" fill="#FF5F5F"/>
</svg>
