<svg width="20" height="20" viewBox="0 0 20 20" fill="none" xmlns="http://www.w3.org/2000/svg">
<path d="M9.99935 1.66675C5.40447 1.66675 1.66602 5.4052 1.66602 10.0001C1.66602 14.595 5.40447 18.3334 9.99935 18.3334C11.0279 18.3334 12.016 18.1466 12.9274 17.8044C13.0052 17.7763 13.0766 17.733 13.1375 17.677C13.1983 17.6211 13.2475 17.5536 13.2822 17.4785C13.3168 17.4034 13.3362 17.3221 13.3392 17.2395C13.3422 17.1568 13.3288 17.0744 13.2997 16.997C13.2706 16.9196 13.2265 16.8487 13.1698 16.7885C13.1131 16.7282 13.0451 16.6798 12.9696 16.6461C12.8941 16.6123 12.8126 16.5939 12.73 16.5919C12.6473 16.5898 12.565 16.6042 12.488 16.6342C11.7144 16.9246 10.8767 17.0834 9.99935 17.0834C6.08006 17.0834 2.91602 13.9194 2.91602 10.0001C2.91602 6.08079 6.08006 2.91675 9.99935 2.91675C13.9186 2.91675 17.0827 6.08079 17.0827 10.0001V11.0417C17.0827 12.0849 16.2508 12.9167 15.2077 12.9167C14.1646 12.9167 13.3327 12.0849 13.3327 11.0417V10.0001V6.45841C13.3339 6.37559 13.3186 6.29337 13.2877 6.21651C13.2568 6.13966 13.2109 6.06971 13.1528 6.01073C13.0946 5.95174 13.0253 5.90491 12.9489 5.87294C12.8725 5.84098 12.7905 5.82451 12.7077 5.82451C12.6249 5.82451 12.5429 5.84098 12.4664 5.87294C12.39 5.90491 12.3207 5.95174 12.2626 6.01073C12.2044 6.06971 12.1586 6.13966 12.1277 6.21651C12.0968 6.29337 12.0815 6.37559 12.0827 6.45841V6.90275C11.4241 6.24357 10.5541 5.83341 9.58268 5.83341C7.47522 5.83341 5.83268 7.74811 5.83268 10.0001C5.83268 12.2521 7.47522 14.1667 9.58268 14.1667C10.7795 14.1667 11.8254 13.5487 12.5067 12.6026C13.0491 13.5347 14.0574 14.1667 15.2077 14.1667C16.9262 14.1667 18.3327 12.7603 18.3327 11.0417V10.0001C18.3327 5.4052 14.5942 1.66675 9.99935 1.66675ZM9.58268 7.08341C10.9219 7.08341 12.0827 8.34622 12.0827 10.0001C12.0827 11.6539 10.9219 12.9167 9.58268 12.9167C8.24348 12.9167 7.08268 11.6539 7.08268 10.0001C7.08268 8.34622 8.24348 7.08341 9.58268 7.08341Z" fill="currentColor"/>
</svg>
