<svg width="48" height="48" viewBox="0 0 48 48" fill="none" xmlns="http://www.w3.org/2000/svg">
<path fill-rule="evenodd" clip-rule="evenodd" d="M21.4233 0L26.5767 0C32.6184 0 35.8583 0.835431 38.7916 2.40419C41.7249 3.97296 44.027 6.27505 45.5958 9.20839C47.1646 12.1417 48 15.3816 48 21.4233V26.5767C48 32.6184 47.1646 35.8583 45.5958 38.7916C44.027 41.7249 41.7249 44.027 38.7916 45.5958C35.8583 47.1646 32.6184 48 26.5767 48H21.4233C15.3816 48 12.1417 47.1646 9.20839 45.5958C6.27505 44.027 3.97296 41.7249 2.40419 38.7916C0.835431 35.8583 0 32.6184 0 26.5767L0 21.4233C0 15.3816 0.835431 12.1417 2.40419 9.20839C3.97296 6.27505 6.27505 3.97296 9.20839 2.40419C12.1417 0.835431 15.3816 0 21.4233 0Z" fill="white"/>
<path fill-rule="evenodd" clip-rule="evenodd" d="M24.5 13C24.0181 13 23.625 13.3931 23.625 13.875C23.625 14.3569 24.0181 14.75 24.5 14.75C24.9819 14.75 25.375 14.3569 25.375 13.875C25.375 13.3931 24.9819 13 24.5 13ZM17.6948 15.8198C17.2129 15.8198 16.8198 16.2129 16.8198 16.6948C16.8198 17.1768 17.2129 17.5698 17.6948 17.5698C18.1768 17.5698 18.5698 17.1768 18.5698 16.6948C18.5698 16.2129 18.1768 15.8198 17.6948 15.8198ZM31.3052 15.8198C30.8232 15.8198 30.4302 16.2129 30.4302 16.6948C30.4302 17.1768 30.8232 17.5698 31.3052 17.5698C31.7871 17.5698 32.1802 17.1768 32.1802 16.6948C32.1802 16.2129 31.7871 15.8198 31.3052 15.8198ZM24.394 17.375C21.1982 17.4331 18.498 20.0786 18.3818 23.271C18.2861 25.8037 19.7456 28.0083 21.875 29.0234V30.5C21.875 31.9492 23.0508 33.125 24.5 33.125C25.9492 33.125 27.125 31.9492 27.125 30.5V29.0234C29.1895 28.0391 30.625 25.937 30.625 23.5C30.625 20.0854 27.8188 17.3169 24.394 17.375ZM14.875 22.625C14.3931 22.625 14 23.0181 14 23.5C14 23.9819 14.3931 24.375 14.875 24.375C15.3569 24.375 15.75 23.9819 15.75 23.5C15.75 23.0181 15.3569 22.625 14.875 22.625ZM34.125 22.625C33.6431 22.625 33.25 23.0181 33.25 23.5C33.25 23.9819 33.6431 24.375 34.125 24.375C34.6069 24.375 35 23.9819 35 23.5C35 23.0181 34.6069 22.625 34.125 22.625Z" fill="#3525E6"/>
</svg>
