<svg width="24" height="24" viewBox="0 0 24 24" fill="none" xmlns="http://www.w3.org/2000/svg">
<path opacity="0.35" d="M19.483 8.192C18.345 5.161 15.429 3 12 3C7.888 3 4.504 6.104 4.055 10.095C1.746 10.538 0 12.562 0 15C0 17.761 2.239 20 5 20H18C21.314 20 24 17.314 24 14C24 11.199 22.078 8.854 19.483 8.192Z" fill="#0A0748"/>
<path d="M5.00002 6.00523C4.05402 6.95023 2.82602 7.42723 1.58802 7.45123C0.89002 7.46423 0.47602 8.22023 0.86102 8.80223C1.27302 9.42523 1.84502 9.97423 2.60202 10.3882C4.23702 11.2822 6.30002 11.1992 7.82802 10.1322C10.464 8.29123 10.699 4.63523 8.53402 2.47023C8.30702 2.24323 8.06402 2.04623 7.80802 1.87523C7.22102 1.48423 6.45802 1.88823 6.44502 2.59323C6.42302 3.83023 5.94602 5.05823 5.00002 6.00523Z" fill="#0A0748"/>
</svg>
