<svg width="24" height="24" viewBox="0 0 24 24" fill="none" xmlns="http://www.w3.org/2000/svg">
<path opacity="0.35" d="M18 21H6C4.343 21 3 19.657 3 18V10C3 8.343 4.343 7 6 7H18C19.657 7 21 8.343 21 10V18C21 19.657 19.657 21 18 21Z" fill="#DA1414"/>
<path d="M8 7C8 4.791 9.791 3 12 3C14.209 3 16 4.791 16 7H18C18 3.686 15.314 1 12 1C8.686 1 6 3.686 6 7H8Z" fill="#DA1414"/>
<path d="M12 15.5C12.8284 15.5 13.5 14.8284 13.5 14C13.5 13.1716 12.8284 12.5 12 12.5C11.1716 12.5 10.5 13.1716 10.5 14C10.5 14.8284 11.1716 15.5 12 15.5Z" fill="#DA1414"/>
<path d="M17 15.5C17.8284 15.5 18.5 14.8284 18.5 14C18.5 13.1716 17.8284 12.5 17 12.5C16.1716 12.5 15.5 13.1716 15.5 14C15.5 14.8284 16.1716 15.5 17 15.5Z" fill="#DA1414"/>
<path d="M7 15.5C7.82843 15.5 8.5 14.8284 8.5 14C8.5 13.1716 7.82843 12.5 7 12.5C6.17157 12.5 5.5 13.1716 5.5 14C5.5 14.8284 6.17157 15.5 7 15.5Z" fill="#DA1414"/>
</svg>
