<svg width="24" height="24" viewBox="0 0 24 24" fill="none" xmlns="http://www.w3.org/2000/svg">
<path d="M18.5 19.5C21.5376 19.5 24 17.0376 24 14C24 10.9624 21.5376 8.5 18.5 8.5C15.4624 8.5 13 10.9624 13 14C13 17.0376 15.4624 19.5 18.5 19.5Z" fill="#AF78FF"/>
<path d="M15.797 4.6692C14.456 7.2322 13 10.7622 13 14.0002H18V5.2012C18 3.9772 16.364 3.5852 15.797 4.6692Z" fill="#AF78FF"/>
<path opacity="0.35" d="M5.5 8.5002C5.331 8.5002 5.165 8.5102 5 8.5252V5.2012C5 3.9772 3.364 3.5852 2.797 4.6692C1.535 7.0812 0.187 10.3462 0.031 13.4222C0.011 13.6122 0 13.8052 0 14.0002C0 17.0382 2.462 19.5002 5.5 19.5002C8.538 19.5002 11 17.0382 11 14.0002C11 10.9622 8.538 8.5002 5.5 8.5002Z" fill="#AF78FF"/>
</svg>
