<svg width="16" height="14" viewBox="0 0 16 14" fill="none" xmlns="http://www.w3.org/2000/svg">
<path d="M10.7246 0.333252C10.2349 0.333252 9.77374 0.524028 9.42773 0.870361L3.87044 6.42765C3.52411 6.77399 3.33333 7.23486 3.33333 7.72453C3.33333 8.21419 3.52411 8.67475 3.87044 9.02075L7.3125 12.4628C7.65883 12.8091 8.11938 12.9999 8.60938 12.9999C9.09904 12.9999 9.55927 12.8091 9.9056 12.4628L15.4635 6.90552C15.8095 6.55952 16 6.09831 16 5.60864V1.83325C16 1.00625 15.3273 0.333252 14.5 0.333252H10.7246ZM7.39128 0.999919C6.90161 0.999919 6.44073 1.19069 6.0944 1.53703L0.537109 7.09432C0.190776 7.44065 0 7.90153 0 8.3912C0 8.88086 0.190776 9.34142 0.537109 9.68742L3.97917 13.1295C4.3255 13.4758 4.78604 13.6666 5.27604 13.6666C5.76571 13.6666 6.22593 13.4758 6.57227 13.1295L6.80469 12.8971L3.39909 9.49211C2.92676 9.02011 2.66667 8.39253 2.66667 7.72453C2.66667 7.05686 2.92676 6.4283 3.39909 5.9563L8.35547 0.999919H7.39128ZM13 2.33325C13.5523 2.33325 14 2.78092 14 3.33325C14 3.88559 13.5523 4.33325 13 4.33325C12.4477 4.33325 12 3.88559 12 3.33325C12 2.78092 12.4477 2.33325 13 2.33325Z" fill="#FF5F5F"/>
</svg>
