<svg width="35" height="35" viewBox="0 0 24 24" fill="none" xmlns="http://www.w3.org/2000/svg">
<path d="M10.7383 2.98924C10.7019 2.99019 10.6657 2.99378 10.6299 2.99998H5.25C3.74011 2.99998 2.5 4.24009 2.5 5.74998V18.25C2.5 19.7599 3.74011 21 5.25 21H10.627C10.7075 21.0132 10.7896 21.0132 10.8701 21H18.75C20.2599 21 21.5 19.7599 21.5 18.25V5.74998C21.5 4.24009 20.2599 2.99998 18.75 2.99998H10.873C10.8285 2.99235 10.7834 2.98876 10.7383 2.98924ZM5.25 4.49998H10V11.8652C9.98634 11.947 9.98634 12.0305 10 12.1123V19.5H5.25C4.55089 19.5 4 18.9491 4 18.25V5.74998C4 5.05087 4.55089 4.49998 5.25 4.49998ZM11.5 4.49998H18.75C19.4491 4.49998 20 5.05087 20 5.74998V18.25C20 18.9491 19.4491 19.5 18.75 19.5H11.5V12.7422L14.4414 12.748L13.4697 13.7197C13.3977 13.7888 13.3403 13.8716 13.3007 13.9632C13.2611 14.0548 13.2402 14.1534 13.2392 14.2531C13.2382 14.3529 13.2571 14.4519 13.2948 14.5443C13.3325 14.6367 13.3883 14.7206 13.4588 14.7911C13.5294 14.8617 13.6133 14.9175 13.7057 14.9552C13.7981 14.9929 13.8971 15.0118 13.9968 15.0108C14.0966 15.0098 14.1952 14.9889 14.2868 14.9493C14.3784 14.9097 14.4612 14.8522 14.5303 14.7803L16.7803 12.5303C16.9209 12.3896 16.9999 12.1989 16.9999 12C16.9999 11.8011 16.9209 11.6104 16.7803 11.4697L14.5303 9.21971C14.4604 9.14772 14.3767 9.09048 14.2843 9.0514C14.1919 9.01231 14.0925 8.99217 13.9922 8.99217C13.8429 8.99221 13.6971 9.03677 13.5733 9.12017C13.4495 9.20357 13.3534 9.322 13.2973 9.46031C13.2412 9.59863 13.2276 9.75054 13.2584 9.89661C13.2891 10.0427 13.3627 10.1763 13.4697 10.2803L14.4375 11.248L11.5 11.2422V4.49998ZM5.75 5.99998C5.65062 5.99858 5.55194 6.01694 5.45972 6.054C5.36749 6.09106 5.28355 6.14608 5.21277 6.21586C5.142 6.28565 5.08579 6.3688 5.04743 6.46049C5.00907 6.55219 4.98932 6.65059 4.98932 6.74998C4.98932 6.84938 5.00907 6.94778 5.04743 7.03947C5.08579 7.13116 5.142 7.21432 5.21277 7.2841C5.28355 7.35389 5.36749 7.40891 5.45972 7.44597C5.55194 7.48303 5.65062 7.50139 5.75 7.49998H8.25C8.34938 7.50139 8.44806 7.48303 8.54028 7.44597C8.63251 7.40891 8.71645 7.35389 8.78723 7.2841C8.858 7.21432 8.91421 7.13116 8.95257 7.03947C8.99093 6.94778 9.01068 6.84938 9.01068 6.74998C9.01068 6.65059 8.99093 6.55219 8.95257 6.46049C8.91421 6.3688 8.858 6.28565 8.78723 6.21586C8.71645 6.14608 8.63251 6.09106 8.54028 6.054C8.44806 6.01694 8.34938 5.99858 8.25 5.99998H5.75ZM5.75 8.49998C5.65062 8.49858 5.55194 8.51694 5.45972 8.554C5.36749 8.59106 5.28355 8.64608 5.21277 8.71586C5.142 8.78565 5.08579 8.8688 5.04743 8.96049C5.00907 9.05219 4.98932 9.15059 4.98932 9.24998C4.98932 9.34938 5.00907 9.44778 5.04743 9.53947C5.08579 9.63116 5.142 9.71432 5.21277 9.7841C5.28355 9.85388 5.36749 9.90891 5.45972 9.94597C5.55194 9.98303 5.65062 10.0014 5.75 9.99998H8.25C8.34938 10.0014 8.44806 9.98303 8.54028 9.94597C8.63251 9.90891 8.71645 9.85388 8.78723 9.7841C8.858 9.71432 8.91421 9.63116 8.95257 9.53947C8.99093 9.44778 9.01068 9.34938 9.01068 9.24998C9.01068 9.15059 8.99093 9.05219 8.95257 8.96049C8.91421 8.8688 8.858 8.78565 8.78723 8.71586C8.71645 8.64608 8.63251 8.59106 8.54028 8.554C8.44806 8.51694 8.34938 8.49858 8.25 8.49998H5.75ZM5.75 11C5.65062 10.9986 5.55194 11.0169 5.45972 11.054C5.36749 11.0911 5.28355 11.1461 5.21277 11.2159C5.142 11.2856 5.08579 11.3688 5.04743 11.4605C5.00907 11.5522 4.98932 11.6506 4.98932 11.75C4.98932 11.8494 5.00907 11.9478 5.04743 12.0395C5.08579 12.1312 5.142 12.2143 5.21277 12.2841C5.28355 12.3539 5.36749 12.4089 5.45972 12.446C5.55194 12.483 5.65062 12.5014 5.75 12.5H8.25C8.34938 12.5014 8.44806 12.483 8.54028 12.446C8.63251 12.4089 8.71645 12.3539 8.78723 12.2841C8.858 12.2143 8.91421 12.1312 8.95257 12.0395C8.99093 11.9478 9.01068 11.8494 9.01068 11.75C9.01068 11.6506 8.99093 11.5522 8.95257 11.4605C8.91421 11.3688 8.858 11.2856 8.78723 11.2159C8.71645 11.1461 8.63251 11.0911 8.54028 11.054C8.44806 11.0169 8.34938 10.9986 8.25 11H5.75Z" fill="#191A1A"/>
</svg>
