<svg width="80" height="52" viewBox="0 0 80 52" fill="none" xmlns="http://www.w3.org/2000/svg">
<rect width="80" height="52" fill="white" fill-opacity="0.01"/>
<g opacity="0.3" clip-path="url(#clip0_1901_372)">
<path d="M30.7187 17.7188C29.4998 18.9375 28.5329 20.3845 27.8733 21.977C27.2136 23.5695 26.8741 25.2763 26.8741 27C26.8741 28.7237 27.2136 30.4305 27.8733 32.023C28.5329 33.6155 29.4998 35.0625 30.7187 36.2812C30.8895 36.4581 30.984 36.6949 30.9819 36.9407C30.9797 37.1865 30.8811 37.4216 30.7073 37.5955C30.5335 37.7693 30.2984 37.8679 30.0526 37.87C29.8068 37.8721 29.5699 37.7776 29.3931 37.6069C28.0002 36.214 26.8952 34.5604 26.1413 32.7404C25.3875 30.9205 24.9995 28.9699 24.9995 27C24.9995 25.0301 25.3875 23.0795 26.1413 21.2596C26.8952 19.4396 28.0002 17.786 29.3931 16.3931C29.5699 16.2224 29.8068 16.1279 30.0526 16.13C30.2984 16.1321 30.5335 16.2307 30.7073 16.4045C30.8811 16.5784 30.9797 16.8135 30.9819 17.0593C30.984 17.3051 30.8895 17.5419 30.7187 17.7188ZM34.6975 21.6975C33.2915 23.104 32.5016 25.0113 32.5016 27C32.5016 28.9887 33.2915 30.896 34.6975 32.3025C34.7847 32.3897 34.8538 32.4931 34.901 32.607C34.9482 32.7209 34.9724 32.843 34.9724 32.9662C34.9724 33.0895 34.9482 33.2116 34.901 33.3255C34.8538 33.4394 34.7847 33.5428 34.6975 33.63C34.6103 33.7172 34.5069 33.7863 34.393 33.8335C34.2791 33.8807 34.157 33.9049 34.0337 33.9049C33.9105 33.9049 33.7884 33.8807 33.6745 33.8335C33.5606 33.7863 33.4572 33.7172 33.37 33.63C32.4992 32.7594 31.8084 31.7258 31.3371 30.5882C30.8658 29.4506 30.6232 28.2314 30.6232 27C30.6232 25.7686 30.8658 24.5494 31.3371 23.4118C31.8084 22.2742 32.4992 21.2406 33.37 20.37C33.546 20.194 33.7848 20.0951 34.0337 20.0951C34.2827 20.0951 34.5215 20.194 34.6975 20.37C34.8735 20.546 34.9724 20.7848 34.9724 21.0338C34.9724 21.2827 34.8735 21.5215 34.6975 21.6975ZM45.3025 20.37C45.3896 20.2827 45.493 20.2134 45.6069 20.1662C45.7208 20.1189 45.8429 20.0946 45.9662 20.0946C46.0896 20.0946 46.2117 20.1189 46.3256 20.1662C46.4395 20.2134 46.5429 20.2827 46.63 20.37C47.5008 21.2406 48.1916 22.2742 48.6629 23.4118C49.1342 24.5494 49.3767 25.7686 49.3767 27C49.3767 28.2314 49.1342 29.4506 48.6629 30.5882C48.1916 31.7258 47.5008 32.7594 46.63 33.63C46.5428 33.7172 46.4394 33.7863 46.3255 33.8335C46.2116 33.8807 46.0895 33.9049 45.9662 33.9049C45.843 33.9049 45.7209 33.8807 45.607 33.8335C45.4931 33.7863 45.3897 33.7172 45.3025 33.63C45.2153 33.5428 45.1462 33.4394 45.099 33.3255C45.0518 33.2116 45.0276 33.0895 45.0276 32.9662C45.0276 32.843 45.0518 32.7209 45.099 32.607C45.1462 32.4931 45.2153 32.3897 45.3025 32.3025C46.7085 30.896 47.4984 28.9887 47.4984 27C47.4984 25.0113 46.7085 23.104 45.3025 21.6975C45.2152 21.6104 45.1459 21.507 45.0987 21.3931C45.0514 21.2792 45.0271 21.1571 45.0271 21.0338C45.0271 20.9104 45.0514 20.7883 45.0987 20.6744C45.1459 20.5605 45.2152 20.4571 45.3025 20.37ZM49.2812 16.395C49.4571 16.2192 49.6955 16.1205 49.9441 16.1205C50.1926 16.1205 50.4311 16.2192 50.6069 16.395C53.4195 19.208 54.9996 23.023 54.9996 27.0009C54.9996 30.9789 53.4195 34.7939 50.6069 37.6069C50.4301 37.7776 50.1932 37.8721 49.9474 37.87C49.7016 37.8679 49.4665 37.7693 49.2927 37.5955C49.1188 37.4216 49.0202 37.1865 49.0181 36.9407C49.016 36.6949 49.1105 36.4581 49.2812 36.2812C50.5002 35.0625 51.4671 33.6155 52.1267 32.023C52.7864 30.4305 53.1259 28.7237 53.1259 27C53.1259 25.2763 52.7864 23.5695 52.1267 21.977C51.4671 20.3845 50.5002 18.9375 49.2812 17.7188C49.1055 17.5429 49.0068 17.3045 49.0068 17.0559C49.0068 16.8073 49.1055 16.5689 49.2812 16.3931V16.395ZM43.75 27C43.75 27.9946 43.3549 28.9484 42.6516 29.6516C41.9484 30.3549 40.9946 30.75 40 30.75C39.0054 30.75 38.0516 30.3549 37.3483 29.6516C36.6451 28.9484 36.25 27.9946 36.25 27C36.25 26.0054 36.6451 25.0516 37.3483 24.3484C38.0516 23.6451 39.0054 23.25 40 23.25C40.9946 23.25 41.9484 23.6451 42.6516 24.3484C43.3549 25.0516 43.75 26.0054 43.75 27Z" fill="#1B1212"/>
</g>
<defs>
<clipPath id="clip0_1901_372">
<rect width="30" height="30" fill="white" transform="translate(25 12)"/>
</clipPath>
</defs>
</svg>
