<svg width="20" height="20" viewBox="0 0 20 20" fill="none" xmlns="http://www.w3.org/2000/svg">
<path d="M10.0007 1.66675C7.70687 1.66675 5.83398 3.53963 5.83398 5.83341C5.83398 8.1272 7.70687 10.0001 10.0007 10.0001C12.2944 10.0001 14.1673 8.1272 14.1673 5.83341C14.1673 3.53963 12.2944 1.66675 10.0007 1.66675ZM10.0007 2.91675C11.6189 2.91675 12.9173 4.21518 12.9173 5.83341C12.9173 7.45165 11.6189 8.75008 10.0007 8.75008C8.38242 8.75008 7.08398 7.45165 7.08398 5.83341C7.08398 4.21518 8.38242 2.91675 10.0007 2.91675ZM4.9917 11.6667C4.07753 11.6667 3.33398 12.4103 3.33398 13.3245V13.9584C3.33398 15.3384 4.11925 16.5311 5.54508 17.3178C6.73175 17.9728 8.31398 18.3334 10.0007 18.3334C10.0073 18.3334 10.0143 18.3326 10.021 18.3326L8.68229 16.9939C6.48729 16.7006 4.58398 15.6722 4.58398 13.9584V13.3245C4.58398 13.0995 4.7667 12.9167 4.9917 12.9167H15.0096C15.2346 12.9167 15.4181 13.0999 15.4181 13.3245V13.3546L16.3792 12.3927C16.0805 11.9552 15.5784 11.6667 15.0096 11.6667H4.9917ZM18.5415 11.6667C18.3816 11.6667 18.2217 11.7278 18.0996 11.8499L12.2915 17.658L9.81755 15.1832C9.57338 14.939 9.17792 14.939 8.93376 15.1832C8.68959 15.4269 8.68959 15.8232 8.93376 16.067L11.8504 18.9836C11.9725 19.1057 12.1323 19.1667 12.2923 19.1667C12.4523 19.1667 12.6121 19.1057 12.7334 18.9836L18.9834 12.7336C19.2276 12.4899 19.2276 12.0936 18.9834 11.8499C18.8613 11.7278 18.7014 11.6667 18.5415 11.6667Z" fill="currentColor"/>
</svg>


