<svg width="24" height="25" viewBox="0 0 24 25" fill="none" xmlns="http://www.w3.org/2000/svg">
<path opacity="0.35" d="M20 16.5V19.5L18.019 20.5H5.984L4 19.5V16.5L5.35 15.5C5.9 14.32 7.11 13.5 8.5 13.5H15.5C16.89 13.5 18.1 14.32 18.65 15.5L20 16.5Z" fill="#50D2A0"/>
<path d="M8.5 20.5H3.5C2.12 20.5 1 19.38 1 18C1 16.62 2.12 15.5 3.5 15.5H5.35C5.12 15.95 5 16.46 5 17C5 18.93 6.57 20.5 8.5 20.5Z" fill="#50D2A0"/>
<path d="M23 18C23 19.38 21.88 20.5 20.5 20.5H15.5C17.43 20.5 19 18.93 19 17C19 16.46 18.88 15.95 18.65 15.5H20.5C21.88 15.5 23 16.62 23 18Z" fill="#50D2A0"/>
<path opacity="0.35" d="M12 11.5C14.2091 11.5 16 9.70914 16 7.5C16 5.29086 14.2091 3.5 12 3.5C9.79086 3.5 8 5.29086 8 7.5C8 9.70914 9.79086 11.5 12 11.5Z" fill="#50D2A0"/>
<path opacity="0.35" d="M20 12.5C21.6569 12.5 23 11.1569 23 9.5C23 7.84315 21.6569 6.5 20 6.5C18.3431 6.5 17 7.84315 17 9.5C17 11.1569 18.3431 12.5 20 12.5Z" fill="#50D2A0"/>
<path opacity="0.35" d="M4 12.5C5.65685 12.5 7 11.1569 7 9.5C7 7.84315 5.65685 6.5 4 6.5C2.34315 6.5 1 7.84315 1 9.5C1 11.1569 2.34315 12.5 4 12.5Z" fill="#50D2A0"/>
</svg>
