<svg width="50" height="50" viewBox="0 0 50 50" fill="none" xmlns="http://www.w3.org/2000/svg">
<path d="M18.4199 43.75C13.3652 43.75 8.6534 42.2798 4.6875 39.7431C8.05468 39.961 13.997 39.4392 17.6931 35.9137C12.1329 35.6586 9.62541 31.3942 9.29834 29.5718C9.77077 29.7541 12.0239 29.9727 13.2958 29.4625C6.89984 27.8588 5.91864 22.2458 6.13668 20.5328C7.33593 21.3711 9.37102 21.6627 10.1705 21.5898C4.21061 17.3254 6.35473 10.9106 7.40861 9.52555C11.6857 15.451 18.0956 18.779 26.0256 18.9641C25.8761 18.3084 25.7971 17.6257 25.7971 16.9244C25.7971 11.8921 29.8647 7.8125 34.8823 7.8125C37.504 7.8125 39.8663 8.92618 41.5245 10.7076C43.2764 10.297 45.913 9.33604 47.2019 8.50501C46.5522 10.8377 44.5296 12.7836 43.3061 13.5048C43.3163 13.5293 43.2961 13.4802 43.3061 13.5048C44.3808 13.3422 47.2887 12.7834 48.4375 12.004C47.8694 13.3145 45.725 15.4933 43.9652 16.7132C44.2926 31.1532 33.2445 43.75 18.4199 43.75Z" fill="#47ACDF"/>
</svg>
