<svg width="20" height="20" viewBox="0 0 20 20" fill="none" xmlns="http://www.w3.org/2000/svg">
<path d="M10.0007 1.66675C7.70687 1.66675 5.83398 3.53963 5.83398 5.83342C5.83398 8.1272 7.70687 10.0001 10.0007 10.0001C12.2944 10.0001 14.1673 8.1272 14.1673 5.83342C14.1673 3.53963 12.2944 1.66675 10.0007 1.66675ZM10.0007 2.91675C11.6189 2.91675 12.9173 4.21518 12.9173 5.83342C12.9173 7.45165 11.6189 8.75008 10.0007 8.75008C8.38242 8.75008 7.08398 7.45165 7.08398 5.83342C7.08398 4.21518 8.38242 2.91675 10.0007 2.91675ZM4.9917 11.6667C4.08344 11.6667 3.33398 12.4162 3.33398 13.3245V13.9584C3.33398 15.4602 4.28368 16.6218 5.54508 17.3178C6.80649 18.0137 8.40403 18.3334 10.0007 18.3334C11.5973 18.3334 13.1948 18.0137 14.4562 17.3178C15.5318 16.7244 16.3412 15.7762 16.568 14.5834H16.6681V13.3245C16.6681 12.4162 15.9179 11.6667 15.0096 11.6667H4.9917ZM4.9917 12.9167H15.0096C15.2422 12.9167 15.4181 13.0919 15.4181 13.3245V13.3334H15.4173V13.9584C15.4173 14.9567 14.8566 15.67 13.8524 16.224C12.8482 16.7781 11.4249 17.0834 10.0007 17.0834C8.57644 17.0834 7.15315 16.7781 6.14893 16.224C5.14471 15.67 4.58398 14.9567 4.58398 13.9584V13.3245C4.58398 13.0919 4.75912 12.9167 4.9917 12.9167Z" fill="currentColor"/>
</svg>
