<svg width="24" height="25" viewBox="0 0 24 25" fill="none" xmlns="http://www.w3.org/2000/svg">
<path opacity="0.35" d="M12 22.5C17.5228 22.5 22 18.0228 22 12.5C22 6.97715 17.5228 2.5 12 2.5C6.47715 2.5 2 6.97715 2 12.5C2 18.0228 6.47715 22.5 12 22.5Z" fill="#DA1414"/>
<path d="M17.348 15.211C17.762 14.396 18 13.477 18 12.5C18 9.186 15.314 6.5 12 6.5C11.023 6.5 10.104 6.738 9.289 7.152L17.348 15.211Z" fill="#DA1414"/>
<path d="M6.652 9.78906C6.238 10.6041 6 11.5231 6 12.5001C6 15.8141 8.686 18.5001 12 18.5001C12.977 18.5001 13.896 18.2621 14.711 17.8481L6.652 9.78906Z" fill="#DA1414"/>
</svg>
