<svg width="18" height="18" viewBox="0 0 18 18" fill="none" xmlns="http://www.w3.org/2000/svg">
<path fill-rule="evenodd" clip-rule="evenodd" d="M9 15.8508C13.0386 15.8508 16.3125 12.6802 16.3125 8.76913C16.3125 4.85806 13.0386 1.6875 9 1.6875C4.96142 1.6875 1.6875 4.85806 1.6875 8.76913C1.6875 10.8963 2.65595 12.8044 4.18914 14.1025V15.5356C4.18914 16.0957 4.75965 16.4713 5.26831 16.2462L6.85855 15.5423C7.53584 15.7429 8.2549 15.8508 9 15.8508Z" fill="url(#paint0_linear_1806_11320)" stroke="white" stroke-width="1.5"/>
<path d="M7.24894 7.26374L5.12844 10.1638C4.90109 10.4747 5.30996 10.8483 5.62125 10.614L7.43191 9.25137C7.61621 9.11267 7.87456 9.1108 8.06102 9.24681L9.67136 10.4216C9.98018 10.6468 10.4215 10.582 10.6464 10.2784L12.8703 7.27542C13.1009 6.96397 12.6889 6.5874 12.3771 6.82472L10.4629 8.28203C10.2785 8.42236 10.0188 8.42494 9.83148 8.2883L8.22637 7.11737C7.91625 6.89114 7.47283 6.95755 7.24894 7.26374Z" fill="white"/>
<defs>
<linearGradient id="paint0_linear_1806_11320" x1="9" y1="1.6875" x2="6.6536" y2="16.2328" gradientUnits="userSpaceOnUse">
<stop stop-color="#00B1FF"/>
<stop offset="1" stop-color="#006BFF"/>
</linearGradient>
</defs>
</svg>
