<svg width="14" height="20" viewBox="0 0 14 20" fill="none" xmlns="http://www.w3.org/2000/svg">
<path fill-rule="evenodd" clip-rule="evenodd" d="M7 0.666993H8.528C8.79191 0.666784 9.05326 0.718808 9.29697 0.820069C9.54068 0.92133 9.76194 1.06982 9.948 1.25699L13.855 5.19499C13.9479 5.28862 14 5.41513 14 5.54699V7.16699C14 7.2996 13.9473 7.42678 13.8536 7.52055C13.7598 7.61431 13.6326 7.66699 13.5 7.66699H9C8.46957 7.66699 7.96086 7.45628 7.58579 7.08121C7.21071 6.70613 7 6.19743 7 5.66699V2.99999H2.333V17H11.667V8.83999H14V17C14.0001 17.3064 13.9399 17.6099 13.8227 17.8931C13.7055 18.1763 13.5337 18.4336 13.317 18.6503C13.1004 18.8671 12.8432 19.039 12.56 19.1563C12.2769 19.2736 11.9735 19.334 11.667 19.334H2.333C2.02654 19.334 1.72309 19.2736 1.43997 19.1563C1.15685 19.039 0.899619 18.8671 0.682966 18.6503C0.466314 18.4336 0.294487 18.1763 0.177302 17.8931C0.0601162 17.6099 -0.000131144 17.3064 2.14338e-07 17V2.99999C2.14338e-07 2.38124 0.245797 1.78784 0.683319 1.35031C1.12084 0.912791 1.71425 0.666993 2.333 0.666993H7Z" fill="#5E6C84"/>
</svg>
