<svg width="21" height="21" viewBox="0 0 21 21" fill="none" xmlns="http://www.w3.org/2000/svg">
<rect x="1.14941" y="1" width="19" height="19" rx="9.5" fill="#EBEEF2"/>
<path d="M3.99902 6.84615C3.99902 6.24076 4.49524 5.75 5.10736 5.75H16.1907C16.8028 5.75 17.299 6.24076 17.299 6.84615V14.1538C17.299 14.7592 16.8028 15.25 16.1907 15.25H5.10736C4.49524 15.25 3.99902 14.7592 3.99902 14.1538V6.84615Z" fill="white"/>
<mask id="mask0_19041_7679" style="mask-type:alpha" maskUnits="userSpaceOnUse" x="3" y="5" width="15" height="11">
<path d="M3.99902 6.84615C3.99902 6.24076 4.49524 5.75 5.10736 5.75H16.1907C16.8028 5.75 17.299 6.24076 17.299 6.84615V14.1538C17.299 14.7592 16.8028 15.25 16.1907 15.25H5.10736C4.49524 15.25 3.99902 14.7592 3.99902 14.1538V6.84615Z" fill="white"/>
</mask>
<g mask="url(#mask0_19041_7679)">
<path d="M15.8213 8.22452L17.2991 7.26123L17.2991 15.2499H15.8213V8.22452Z" fill="#D24C42"/>
<path d="M3.99902 7.1084V15.2501H5.4768V8.10568L3.99902 7.1084Z" fill="#D24B42"/>
<path d="M17.299 7.2614L10.649 11.5962L3.99902 7.10841V6.84622C3.99902 6.25594 4.47079 5.77463 5.06176 5.75098L10.649 9.58657L16.4042 5.77039C16.9142 5.86881 17.299 6.31306 17.299 6.84622V7.2614Z" fill="#D24B42"/>
</g>
<path d="M10.6488 11.5962L5.47656 15.25V8.125L10.6488 11.5962Z" fill="url(#paint0_linear_19041_7679)" style="mix-blend-mode:multiply"/>
<path d="M12.2192 15.2499L3.99902 7.12012L10.649 11.5961L17.299 7.30281V15.2499H12.2192Z" fill="url(#paint1_linear_19041_7679)" style="mix-blend-mode:multiply"/>
<rect x="1.14941" y="1" width="19" height="19" rx="9.5" stroke="white" stroke-width="1.5"/>
<defs>
<linearGradient id="paint0_linear_19041_7679" x1="8.06267" y1="8.125" x2="8.06267" y2="15.25" gradientUnits="userSpaceOnUse">
<stop stop-color="#C5C5C5"/>
<stop offset="1" stop-color="#E2E2E2" stop-opacity="0"/>
</linearGradient>
<linearGradient id="paint1_linear_19041_7679" x1="10.649" y1="5.84127" x2="10.649" y2="15.2499" gradientUnits="userSpaceOnUse">
<stop stop-color="#BEBEBE"/>
<stop offset="1" stop-color="#BEBEBE" stop-opacity="0"/>
</linearGradient>
</defs>
</svg>
