<svg width="16" height="16" viewBox="0 0 16 16" fill="none" xmlns="http://www.w3.org/2000/svg">
<g clip-path="url(#clip0_4258_4466)">
<rect width="16" height="16" fill="white" fill-opacity="0.01"/>
<path fill-rule="evenodd" clip-rule="evenodd" d="M2 0H14C14.5304 0 15.0391 0.210714 15.4142 0.585786C15.7893 0.960859 16 1.46957 16 2V14C16 14.5304 15.7893 15.0391 15.4142 15.4142C15.0391 15.7893 14.5304 16 14 16H2C1.46957 16 0.960859 15.7893 0.585786 15.4142C0.210714 15.0391 0 14.5304 0 14V2C0 1.46957 0.210714 0.960859 0.585786 0.585786C0.960859 0.210714 1.46957 0 2 0V0ZM6.75 11.75L6.207 11.207C6.01947 11.0195 5.76516 10.9142 5.5 10.9142C5.23484 10.9142 4.98053 11.0195 4.793 11.207L3 13H13V10.75L11.205 8.776C11.1139 8.6759 11.0035 8.59533 10.8804 8.53916C10.7573 8.48298 10.6241 8.45238 10.4888 8.4492C10.3535 8.44602 10.219 8.47033 10.0934 8.52066C9.96775 8.57099 9.85366 8.64629 9.758 8.742L6.75 11.75ZM4.667 6.333C4.88928 6.33845 5.11041 6.29937 5.31736 6.21807C5.52431 6.13676 5.71291 6.01488 5.87205 5.85959C6.03119 5.70431 6.15765 5.51875 6.244 5.31385C6.33034 5.10895 6.37483 4.88885 6.37483 4.6665C6.37483 4.44415 6.33034 4.22405 6.244 4.01915C6.15765 3.81425 6.03119 3.62869 5.87205 3.47341C5.71291 3.31812 5.52431 3.19624 5.31736 3.11493C5.11041 3.03363 4.88928 2.99455 4.667 3C4.23208 3.01065 3.81857 3.19091 3.51473 3.50228C3.2109 3.81364 3.04083 4.23145 3.04083 4.6665C3.04083 5.10155 3.2109 5.51936 3.51473 5.83072C3.81857 6.14209 4.23208 6.32235 4.667 6.333Z" fill="#FFAB00"/>
</g>
<defs>
<clipPath id="clip0_4258_4466">
<rect width="16" height="16" fill="white"/>
</clipPath>
</defs>
</svg>
