<svg width="19" height="19" viewBox="0 0 19 19" fill="none" xmlns="http://www.w3.org/2000/svg">
<rect x="1.9375" y="1.9375" width="15.125" height="15.125" rx="7.5625" fill="url(#paint0_radial_1806_11323)" stroke="white" stroke-width="1.5"/>
<rect x="1.9375" y="1.9375" width="15.125" height="15.125" rx="7.5625" fill="url(#paint1_radial_1806_11323)" stroke="white" stroke-width="1.5"/>
<rect x="1.90152" y="1.9375" width="15.125" height="15.125" rx="7.5625" fill="url(#paint2_radial_1806_11323)" stroke="white" stroke-width="1.5"/>
<path d="M12.7521 7.18572C12.7521 7.55463 12.4531 7.85369 12.0842 7.85369C11.7153 7.85369 11.4162 7.55463 11.4162 7.18572C11.4162 6.81681 11.7153 6.51775 12.0842 6.51775C12.4531 6.51775 12.7521 6.81681 12.7521 7.18572Z" fill="white"/>
<path fill-rule="evenodd" clip-rule="evenodd" d="M9.63495 11.8615C10.8646 11.8615 11.8615 10.8646 11.8615 9.63494C11.8615 8.40524 10.8646 7.40838 9.63495 7.40838C8.40525 7.40838 7.40839 8.40524 7.40839 9.63494C7.40839 10.8646 8.40525 11.8615 9.63495 11.8615ZM9.63495 10.9709C10.3728 10.9709 10.9709 10.3728 10.9709 9.63494C10.9709 8.89712 10.3728 8.299 9.63495 8.299C8.89713 8.299 8.29901 8.89712 8.29901 9.63494C8.29901 10.3728 8.89713 10.9709 9.63495 10.9709Z" fill="white"/>
<path fill-rule="evenodd" clip-rule="evenodd" d="M5.18182 9.45682C5.18182 7.96043 5.18182 7.21223 5.47304 6.64069C5.7292 6.13794 6.13795 5.72919 6.64069 5.47303C7.21224 5.18182 7.96043 5.18182 9.45682 5.18182H9.81307C11.3095 5.18182 12.0577 5.18182 12.6292 5.47303C13.1319 5.72919 13.5407 6.13794 13.7969 6.64069C14.0881 7.21223 14.0881 7.96043 14.0881 9.45682V9.81307C14.0881 11.3095 14.0881 12.0577 13.7969 12.6292C13.5407 13.1319 13.1319 13.5407 12.6292 13.7968C12.0577 14.0881 11.3095 14.0881 9.81307 14.0881H9.45682C7.96043 14.0881 7.21224 14.0881 6.64069 13.7968C6.13795 13.5407 5.7292 13.1319 5.47304 12.6292C5.18182 12.0577 5.18182 11.3095 5.18182 9.81307V9.45682ZM9.45682 6.07244H9.81307C10.576 6.07244 11.0946 6.07313 11.4954 6.10589C11.8859 6.13779 12.0856 6.19561 12.2249 6.26659C12.56 6.43736 12.8325 6.70986 13.0033 7.04502C13.0743 7.18431 13.1321 7.384 13.164 7.77446C13.1968 8.17532 13.1974 8.69392 13.1974 9.45682V9.81307C13.1974 10.576 13.1968 11.0946 13.164 11.4954C13.1321 11.8859 13.0743 12.0856 13.0033 12.2249C12.8325 12.56 12.56 12.8325 12.2249 13.0033C12.0856 13.0743 11.8859 13.1321 11.4954 13.164C11.0946 13.1967 10.576 13.1974 9.81307 13.1974H9.45682C8.69393 13.1974 8.17533 13.1967 7.77447 13.164C7.384 13.1321 7.18432 13.0743 7.04503 13.0033C6.70986 12.8325 6.43737 12.56 6.26659 12.2249C6.19562 12.0856 6.1378 11.8859 6.10589 11.4954C6.07314 11.0946 6.07245 10.576 6.07245 9.81307V9.45682C6.07245 8.69392 6.07314 8.17532 6.10589 7.77446C6.1378 7.384 6.19562 7.18431 6.26659 7.04502C6.43737 6.70986 6.70986 6.43736 7.04503 6.26659C7.18432 6.19561 7.384 6.13779 7.77447 6.10589C8.17533 6.07313 8.69393 6.07244 9.45682 6.07244Z" fill="white"/>
<defs>
<radialGradient id="paint0_radial_1806_11323" cx="0" cy="0" r="1" gradientUnits="userSpaceOnUse" gradientTransform="translate(7.125 13.6563) rotate(-55.3758) scale(15.1523)">
<stop stop-color="#B13589"/>
<stop offset="0.79309" stop-color="#C62F94"/>
<stop offset="1" stop-color="#8A3AC8"/>
</radialGradient>
<radialGradient id="paint1_radial_1806_11323" cx="0" cy="0" r="1" gradientUnits="userSpaceOnUse" gradientTransform="translate(6.53125 18.4062) rotate(-65.1363) scale(13.4153)">
<stop stop-color="#E0E8B7"/>
<stop offset="0.444662" stop-color="#FB8A2E"/>
<stop offset="0.71474" stop-color="#E2425C"/>
<stop offset="1" stop-color="#E2425C" stop-opacity="0"/>
</radialGradient>
<radialGradient id="paint2_radial_1806_11323" cx="0" cy="0" r="1" gradientUnits="userSpaceOnUse" gradientTransform="translate(0.260896 1.78125) rotate(-8.1301) scale(23.0915 4.93902)">
<stop offset="0.156701" stop-color="#406ADC"/>
<stop offset="0.467799" stop-color="#6A45BE"/>
<stop offset="1" stop-color="#6A45BE" stop-opacity="0"/>
</radialGradient>
</defs>
</svg>
