<svg width="20" height="20" viewBox="0 0 17 17" fill="none" xmlns="http://www.w3.org/2000/svg">
<path d="M0.652344 8.48944C0.652344 4.16383 4.15894 0.657227 8.48455 0.657227C12.8102 0.657227 16.3168 4.16383 16.3168 8.48944C16.3168 12.815 12.8102 16.3216 8.48455 16.3216C4.15894 16.3216 0.652344 12.815 0.652344 8.48944Z" fill="#F2F2F2" stroke="white"/>
<path opacity="0.35" d="M13.375 10.6667C13.375 10.3119 13.1464 10.0134 12.8295 9.90292C12.8306 9.79675 12.8333 9.69437 12.8333 9.58333C12.8333 7.19025 10.8931 5.25 8.5 5.25C6.10692 5.25 4.16667 7.19025 4.16667 9.58333C4.16667 9.69004 4.17479 9.79458 4.18237 9.89912C3.85954 10.0064 3.625 10.3075 3.625 10.6667C3.625 11.1152 3.989 11.4792 4.4375 11.4792C4.49329 11.4792 4.54746 11.4737 4.6 11.4629C5.30038 12.9135 6.78129 13.9167 8.5 13.9167C11.4337 13.9167 12.419 13.2629 12.7158 11.4635C13.0912 11.392 13.375 11.0632 13.375 10.6667Z" fill="#323434"/>
<path d="M10.125 4.16683C10.125 3.56829 9.64021 3.0835 9.04167 3.0835H8.5C5.80737 3.0835 3.625 5.26587 3.625 7.9585V9.5835C3.625 9.8825 3.86767 10.1252 4.16667 10.1252C4.46567 10.1252 4.70833 9.96645 4.70833 9.5835C4.70833 8.69516 5.43579 7.9585 6.33333 7.9585H10.6667C11.5642 7.9585 12.2917 8.68595 12.2917 9.5835C12.2917 9.89983 12.5343 10.1252 12.8333 10.1252C13.1323 10.1252 13.375 9.8825 13.375 9.5835V7.9585C13.375 4.16683 10.125 4.16683 10.125 4.16683Z" fill="#323434"/>
<path d="M8.49935 13.9167C9.09766 13.9167 9.58268 13.4316 9.58268 12.8333C9.58268 12.235 9.09766 11.75 8.49935 11.75C7.90104 11.75 7.41602 12.235 7.41602 12.8333C7.41602 13.4316 7.90104 13.9167 8.49935 13.9167Z" fill="#323434"/>
<path d="M12.2917 10.6665V11.7498C12.2917 12.3484 11.8069 12.8332 11.2083 12.8332H8.5V13.9165H11.2083C12.4049 13.9165 13.375 12.9464 13.375 11.7498V10.6665H12.2917Z" fill="#323434"/>
<path d="M13.3743 11.75H12.291V8.5H13.3743C13.9729 8.5 14.4577 8.98479 14.4577 9.58333V10.6667C14.4577 11.2652 13.9729 11.75 13.3743 11.75Z" fill="#323434"/>
</svg>
