<svg width="18" height="18" viewBox="0 0 18 18" fill="none" xmlns="http://www.w3.org/2000/svg">
<path fill-rule="evenodd" clip-rule="evenodd" d="M17.167 2.78499V12.733C17.167 13.5995 16.8228 14.4304 16.2101 15.0431C15.5974 15.6558 14.7665 16 13.9 16H13.433C12.5667 15.9997 11.736 15.6554 11.1235 15.0428C10.5111 14.4301 10.167 13.5993 10.167 12.733V12.267C10.167 11.4007 10.5111 10.5699 11.1235 9.95723C11.736 9.34458 12.5667 9.00026 13.433 8.99999H13.9C14.224 8.99999 14.538 9.04699 14.833 9.13499V4.61499L7.83301 5.34099V13.9C7.83301 14.7663 7.48894 15.5971 6.87648 16.2098C6.26401 16.8224 5.4333 17.1667 4.56701 17.167H4.10001C3.23355 17.167 2.40257 16.8228 1.78989 16.2101C1.17721 15.5974 0.833008 14.7665 0.833008 13.9V13.433C0.833273 12.5667 1.17759 11.736 1.79024 11.1235C2.4029 10.5111 3.23372 10.167 4.10001 10.167H4.56701C4.89101 10.167 5.20401 10.214 5.50001 10.302V2.76299C5.50001 2.31899 5.86201 1.92099 6.33901 1.87299L16.328 0.837992C16.791 0.789992 17.167 1.11199 17.167 1.55499V2.78499Z" fill="#FF5630"/>
</svg>
