<svg width="20" height="20" viewBox="0 0 17 17" fill="none" xmlns="http://www.w3.org/2000/svg">
<path d="M0.652832 8.48944C0.652832 4.16383 4.15943 0.657227 8.48504 0.657227C12.8106 0.657227 16.3172 4.16383 16.3172 8.48944C16.3172 12.815 12.8106 16.3216 8.48504 16.3216C4.15943 16.3216 0.652832 12.815 0.652832 8.48944Z" fill="#F2F2F2" stroke="white"/>
<path d="M7.84619 11.1093C7.84619 11.4696 8.13859 11.762 8.49888 11.762H14.0467C14.407 11.762 14.6994 11.4696 14.6994 11.1093V6.21421C14.6994 5.85393 14.407 5.56152 14.0467 5.56152H8.49888C8.13859 5.56152 7.84619 5.85393 7.84619 6.21421V11.1093Z" fill="#03A9F4"/>
<path d="M14.6994 6.53218V6.214C14.6994 6.07432 14.6547 5.94542 14.5797 5.83936L10.9037 8.10156L8.44247 6.58211L8.21338 7.19302L10.9739 8.82473L14.6994 6.53218Z" fill="#B3E5FC"/>
<path d="M9.80435 14.5227L2.95117 13.2174V4.07978L9.80435 2.77441V14.5227Z" fill="#0277BD"/>
<path d="M7.91805 6.96804C7.55973 6.55196 7.08718 6.34375 6.50564 6.34375C5.8882 6.34375 5.39347 6.56207 5.01948 6.99741C4.64614 7.43373 4.4585 8.00516 4.4585 8.7094C4.4585 9.37677 4.64255 9.92144 5.01001 10.3365C5.37748 10.752 5.85589 10.9599 6.43874 10.9599C7.03921 10.9599 7.52579 10.7471 7.89879 10.3153C8.2718 9.88684 8.45749 9.32227 8.45749 8.61868C8.45749 7.93728 8.27768 7.38707 7.91805 6.96804ZM7.21087 9.71715C7.0255 9.9681 6.77389 10.0931 6.45604 10.0931C6.1496 10.0931 5.90158 9.96451 5.71034 9.70573C5.52074 9.44955 5.42643 9.0984 5.42643 8.65784C5.42643 8.22185 5.52074 7.87005 5.71034 7.60539C5.90158 7.34105 6.15678 7.21019 6.47888 7.21019C6.79282 7.21019 7.03954 7.33844 7.2187 7.59462C7.39982 7.85406 7.49054 8.21304 7.49054 8.67481C7.49087 9.12027 7.39655 9.46684 7.21087 9.71715Z" fill="white"/>
</svg>
