<svg width="16" height="16" viewBox="0 0 16 16" fill="none" xmlns="http://www.w3.org/2000/svg">
<g clip-path="url(#clip0_4258_4464)">
<rect width="16" height="16" fill="white" fill-opacity="0.01"/>
<path fill-rule="evenodd" clip-rule="evenodd" d="M2 0H14C14.5304 0 15.0391 0.210714 15.4142 0.585786C15.7893 0.960859 16 1.46957 16 2V14C16 14.5304 15.7893 15.0391 15.4142 15.4142C15.0391 15.7893 14.5304 16 14 16H2C1.46957 16 0.960859 15.7893 0.585786 15.4142C0.210714 15.0391 0 14.5304 0 14V2C0 1.46957 0.210714 0.960859 0.585786 0.585786C0.960859 0.210714 1.46957 0 2 0V0ZM3.23 8.113H3.553C4.297 8.113 4.355 7.899 4.355 7.596C4.355 7.25 4.176 7.082 3.81 7.082H3.23V8.112V8.113ZM7.424 9.569H7.867C8.361 9.569 8.867 9.422 8.867 8.332C8.867 7.232 8.333 7.092 7.867 7.092H7.424V9.569ZM2.975 10.66H2.255C2.18728 10.6597 2.12242 10.6326 2.07463 10.5847C2.02683 10.5367 2 10.4717 2 10.404V6.255C2 6.115 2.114 6 2.255 6H3.918C4.907 6 5.598 6.656 5.598 7.596C5.598 8.549 4.921 9.189 3.915 9.189H3.23V10.404C3.23 10.4719 3.20303 10.537 3.15502 10.585C3.10701 10.633 3.0419 10.66 2.974 10.66H2.975ZM7.943 10.66H6.448C6.38028 10.6597 6.31542 10.6326 6.26763 10.5847C6.21983 10.5367 6.193 10.4717 6.193 10.404V6.255C6.193 6.115 6.307 6 6.448 6H7.943C9.347 6 10.121 6.825 10.121 8.323C10.121 9.83 9.347 10.66 7.943 10.66ZM11.793 10.66H11.073C11.0051 10.66 10.94 10.633 10.892 10.585C10.844 10.537 10.817 10.4719 10.817 10.404V6.255C10.817 6.115 10.931 6 11.072 6H13.745C13.885 6 14 6.115 14 6.255V6.842C13.9997 6.90955 13.9728 6.97426 13.925 7.02202C13.8773 7.06979 13.8125 7.09674 13.745 7.097H12.048V7.857H13.576C13.717 7.857 13.831 7.972 13.831 8.113V8.69C13.831 8.83 13.717 8.946 13.576 8.946H12.048V10.404C12.048 10.4717 12.0212 10.5367 11.9734 10.5847C11.9256 10.6326 11.8607 10.6597 11.793 10.66Z" fill="#FF5630"/>
</g>
<defs>
<clipPath id="clip0_4258_4464">
<rect width="16" height="16" fill="white"/>
</clipPath>
</defs>
</svg>
