<svg width="18" height="18" viewBox="0 0 18 18" fill="none" xmlns="http://www.w3.org/2000/svg">
<path d="M1 9C1 4.58172 4.58172 1 9 1C13.4183 1 17 4.58172 17 9C17 13.4183 13.4183 17 9 17C4.58172 17 1 13.4183 1 9Z" fill="#55ACEE" stroke="white" stroke-width="1.5"/>
<path d="M8.85557 7.12813L8.87725 7.47415L8.51597 7.43178C7.20092 7.26936 6.05206 6.71855 5.07661 5.79347L4.59972 5.33446L4.47689 5.67342C4.21677 6.42902 4.38295 7.22699 4.92487 7.76368C5.21389 8.06027 5.14886 8.10264 4.6503 7.9261C4.47689 7.8696 4.32515 7.82723 4.3107 7.84842C4.26012 7.89785 4.43353 8.54046 4.57082 8.79468C4.75868 9.14777 5.14164 9.49379 5.56072 9.69858L5.91477 9.861L5.49569 9.86806C5.09106 9.86806 5.07661 9.87512 5.11996 10.0234C5.26447 10.4824 5.83529 10.9697 6.47114 11.1815L6.91912 11.3298L6.52894 11.5558C5.9509 11.8806 5.2717 12.0642 4.5925 12.0784C4.26735 12.0854 4 12.1137 4 12.1349C4 12.2055 4.88152 12.6009 5.39453 12.7563C6.93357 13.2153 8.76164 13.0176 10.1345 12.2337C11.1099 11.6759 12.0854 10.5672 12.5406 9.49379C12.7863 8.92179 13.0319 7.87666 13.0319 7.37528C13.0319 7.05045 13.0536 7.00808 13.4582 6.61968C13.6967 6.39371 13.9207 6.14655 13.964 6.07593C14.0363 5.94176 14.0291 5.94176 13.6606 6.06181C13.0464 6.27366 12.9597 6.24541 13.2632 5.92764C13.4871 5.70166 13.7545 5.29209 13.7545 5.17204C13.7545 5.15085 13.6461 5.18616 13.5233 5.24972C13.3932 5.32033 13.1042 5.42626 12.8874 5.48981L12.4972 5.60986L12.1432 5.37683C11.9481 5.24972 11.6735 5.10848 11.529 5.06611C11.1605 4.96725 10.5969 4.98137 10.2646 5.09436C9.36136 5.41214 8.79054 6.23129 8.85557 7.12813Z" fill="white"/>
</svg>
