<svg width="20" height="12" viewBox="0 0 20 12" fill="none" xmlns="http://www.w3.org/2000/svg">
<path fill-rule="evenodd" clip-rule="evenodd" d="M0.667016 1.16099C0.667016 0.611992 1.11002 0.166992 1.66102 0.166992H11.339C11.888 0.166992 12.333 0.609992 12.333 1.16099V10.839C12.3331 10.9696 12.3075 11.0989 12.2576 11.2195C12.2077 11.3402 12.1345 11.4498 12.0422 11.5421C11.9498 11.6345 11.8402 11.7077 11.7196 11.7576C11.5989 11.8075 11.4696 11.8331 11.339 11.833H1.66002C1.52944 11.8331 1.40013 11.8075 1.27947 11.7576C1.15882 11.7077 1.04919 11.6345 0.956858 11.5421C0.864531 11.4498 0.791318 11.3402 0.741412 11.2195C0.691505 11.0989 0.665885 10.9696 0.666016 10.839V1.15999L0.667016 1.16099ZM18.353 10.595L14.667 8.81099V3.19099L18.353 1.40499C18.797 1.18999 19.333 1.48299 19.333 1.93799V10.062C19.333 10.517 18.797 10.81 18.353 10.595Z" fill="#FF5630"/>
</svg>
