<svg width="18" height="17" viewBox="0 0 18 17" fill="none" xmlns="http://www.w3.org/2000/svg">
<circle cx="8.97785" cy="8.53333" r="7.28889" fill="#25D366" stroke="white" stroke-width="1.5"/>
<path fill-rule="evenodd" clip-rule="evenodd" d="M9.21804 12.5885H9.21624C8.49086 12.5883 7.77809 12.4063 7.14504 12.061L4.84741 12.6637L5.4623 10.4178C5.08301 9.76044 4.88342 9.01484 4.88375 8.25095C4.8847 5.86124 6.82902 3.91702 9.21799 3.91702C10.3774 3.91752 11.4657 4.36889 12.284 5.18815C13.1023 6.00736 13.5527 7.09629 13.5522 8.25437C13.5513 10.6435 11.6077 12.5876 9.21804 12.5885ZM7.25148 11.2764L7.38302 11.3544C7.93612 11.6827 8.57014 11.8563 9.21656 11.8566H9.21802C11.2036 11.8566 12.8196 10.2405 12.8204 8.25415C12.8208 7.29157 12.4464 6.38649 11.7663 5.70556C11.0861 5.02463 10.1816 4.64944 9.21944 4.64911C7.23236 4.64911 5.61631 6.26502 5.61552 8.25123C5.61524 8.93192 5.80569 9.59483 6.1663 10.1684L6.25196 10.3047L5.88803 11.634L7.25148 11.2764ZM11.2532 9.18751C11.3288 9.22401 11.3798 9.24867 11.4016 9.28502C11.4286 9.33017 11.4286 9.54701 11.3384 9.80002C11.2481 10.053 10.8155 10.2839 10.6074 10.3149C10.4208 10.3428 10.1847 10.3545 9.92531 10.272C9.76801 10.2221 9.5663 10.1555 9.30793 10.0439C8.29266 9.60551 7.60655 8.62151 7.47688 8.43553C7.4678 8.4225 7.46144 8.41339 7.4579 8.40866L7.45702 8.40749C7.39971 8.33102 7.01569 7.81865 7.01569 7.28836C7.01569 6.78952 7.26073 6.52805 7.37353 6.4077C7.38125 6.39945 7.38836 6.39187 7.39473 6.38492C7.49399 6.27649 7.61132 6.24939 7.68352 6.24939C7.7557 6.24939 7.82798 6.25006 7.89108 6.25322C7.89886 6.25362 7.90696 6.25357 7.91533 6.25352C7.97844 6.25315 8.05712 6.25269 8.13474 6.43913C8.1646 6.51088 8.20829 6.61725 8.25438 6.72944C8.34756 6.95631 8.45052 7.20697 8.46864 7.24324C8.49572 7.29746 8.51376 7.36067 8.47767 7.43298C8.47225 7.44382 8.46724 7.45406 8.46245 7.46383C8.43533 7.51918 8.41539 7.5599 8.36937 7.61363C8.35128 7.63476 8.33258 7.65754 8.31387 7.68031C8.27662 7.72568 8.23936 7.77105 8.20692 7.80337C8.15271 7.85737 8.09627 7.91596 8.15944 8.02438C8.22262 8.13281 8.43996 8.48743 8.76191 8.7746C9.10799 9.08329 9.40877 9.21376 9.56123 9.27989C9.59101 9.29281 9.61512 9.30327 9.63282 9.31212C9.74107 9.36635 9.80425 9.35728 9.86743 9.28502C9.9306 9.21275 10.1381 8.96878 10.2103 8.86038C10.2825 8.752 10.3547 8.77005 10.454 8.80618C10.5533 8.84235 11.0857 9.10431 11.194 9.15852C11.2152 9.1691 11.2349 9.17866 11.2532 9.18751Z" fill="#FDFDFD"/>
</svg>
